<svg xmlns="http://www.w3.org/2000/svg" xmlns:xlink="http://www.w3.org/1999/xlink" width="348.994" height="483.035" viewBox="0 0 348.994 483.035">
  <defs>
    <linearGradient id="linear-gradient" x1="0.496" y1="1.856" x2="0.508" y2="-2.044" gradientUnits="objectBoundingBox">
      <stop offset="0" stop-color="#a4b1fb"/>
      <stop offset="1" stop-color="#c8d2fc"/>
    </linearGradient>
  </defs>
  <g id="Group_348" data-name="Group 348" transform="translate(-61.02 -13.297)">
    <g id="Group_29" data-name="Group 29" transform="translate(241.906 81.75)">
      <path id="Path_44" data-name="Path 44" d="M154.285,189.985s-23.065-29.248-15.765-55.868C138.52,134.117,157.818,154.6,154.285,189.985Z" transform="translate(-137.092 -95.237)" fill="#4d5bdb"/>
      <path id="Path_45" data-name="Path 45" d="M153.415,176.321S138.308,146.589,149.4,124.5C149.4,124.5,162.74,145.874,153.415,176.321Z" transform="translate(-128.79 -104.924)" fill="#4d5bdb"/>
      <path id="Path_46" data-name="Path 46" d="M157.316,161.719s-10.3-26.59,1.026-44.427C158.342,117.292,167.857,136.617,157.316,161.719Z" transform="translate(-121.037 -112.189)" fill="#4d5bdb"/>
      <path id="Path_47" data-name="Path 47" d="M156.306,145.786s20.9-19.4,41.659-15.468C197.965,130.318,183.526,146.3,156.306,145.786Z" transform="translate(-117.733 -99.595)" fill="#4d5bdb"/>
      <path id="Path_48" data-name="Path 48" d="M150.615,158.313s23.783-22.081,47.412-17.606C198.027,140.706,181.6,158.9,150.615,158.313Z" transform="translate(-123.467 -89.201)" fill="#4d5bdb"/>
      <path id="Path_49" data-name="Path 49" d="M145.8,170.246s25.608-23.777,51.054-18.957C196.853,151.289,179.158,170.878,145.8,170.246Z" transform="translate(-128.319 -78.585)" fill="#4d5bdb"/>
      <path id="Path_50" data-name="Path 50" d="M160.2,150.047s3.941-26.148,21.27-35.3C181.474,114.75,180.243,134.687,160.2,150.047Z" transform="translate(-113.805 -114.75)" fill="#4d5bdb"/>
      <path id="Path_51" data-name="Path 51" d="M182.348,129.362A195.775,195.775,0,0,0,142.7,275.935c.309,2.234,3.848,2.108,3.535-.151a192.278,192.278,0,0,1,38.722-144.027c1.4-1.785-1.2-4.19-2.606-2.395Z" transform="translate(-133.259 -100.666)" fill="#4d5bdb"/>
    </g>
    <g id="Group_262" data-name="Group 262" transform="translate(132.906 105.75)">
      <path id="Path_44-2" data-name="Path 44" d="M137.524,189.985s23.065-29.248,15.765-55.868C153.289,134.117,133.991,154.6,137.524,189.985Z" transform="translate(-74.485 -95.237)" fill="#f38000"/>
      <path id="Path_45-2" data-name="Path 45" d="M148.642,176.321s15.107-29.732,4.015-51.819C152.657,124.5,139.317,145.874,148.642,176.321Z" transform="translate(-93.035 -104.924)" fill="#f38000"/>
      <path id="Path_46-2" data-name="Path 46" d="M157.993,161.719s10.3-26.59-1.026-44.427C156.967,117.292,147.451,136.617,157.993,161.719Z" transform="translate(-114.04 -112.189)" fill="#f38000"/>
      <path id="Path_47-2" data-name="Path 47" d="M197.965,145.786s-20.9-19.4-41.659-15.468C156.306,130.318,170.744,146.3,197.965,145.786Z" transform="translate(-156.306 -99.595)" fill="#f38000"/>
      <path id="Path_48-2" data-name="Path 48" d="M198.027,158.313s-23.783-22.081-47.412-17.606C150.615,140.706,167.047,158.9,198.027,158.313Z" transform="translate(-144.944 -89.201)" fill="#f38000"/>
      <path id="Path_49-2" data-name="Path 49" d="M196.853,170.246s-25.608-23.777-51.054-18.957C145.8,151.289,163.493,170.878,196.853,170.246Z" transform="translate(-134.101 -78.585)" fill="#f38000"/>
      <path id="Path_50-2" data-name="Path 50" d="M181.474,150.047s-3.941-26.148-21.27-35.3C160.2,114.75,161.435,134.687,181.474,150.047Z" transform="translate(-147.641 -114.75)" fill="#f38000"/>
      <path id="Path_51-2" data-name="Path 51" d="M143.9,129.362a195.775,195.775,0,0,1,39.651,146.573c-.309,2.234-3.848,2.108-3.535-.151A192.278,192.278,0,0,0,141.3,131.757c-1.4-1.785,1.2-4.19,2.606-2.395Z" transform="translate(-112.76 -100.666)" fill="#f38000"/>
    </g>
    <g id="Group_30" data-name="Group 30" transform="translate(272.431 122.169)">
      <path id="Path_52" data-name="Path 52" d="M176.161,185.31s-1.743-34.215,17.9-50.3C194.062,135.009,197.642,160.641,176.161,185.31Z" transform="translate(-127.293 -128.758)" fill="#a4b1fb"/>
      <path id="Path_53" data-name="Path 53" d="M185.107,173.893s4.489-30.346,24.562-41.014C209.669,132.879,208.306,156.012,185.107,173.893Z" transform="translate(-118.239 -130.904)" fill="#a4b1fb"/>
      <path id="Path_54" data-name="Path 54" d="M195.259,164.68s6.418-25.43,24.41-32.785C219.669,131.895,216.525,151.459,195.259,164.68Z" transform="translate(-108.011 -131.895)" fill="#a4b1fb"/>
      <path id="Path_55" data-name="Path 55" d="M197,147.774s26-3.435,39.486,10.564C236.486,158.338,217.148,162.648,197,147.774Z" transform="translate(-106.257 -116.271)" fill="#a4b1fb"/>
      <path id="Path_56" data-name="Path 56" d="M186.656,153.337s29.593-3.911,44.939,12.021C231.595,165.358,209.586,170.262,186.656,153.337Z" transform="translate(-116.679 -110.719)" fill="#a4b1fb"/>
      <path id="Path_57" data-name="Path 57" d="M177.066,159.216s31.866-4.21,48.39,12.945C225.456,172.161,201.757,177.443,177.066,159.216Z" transform="translate(-126.341 -104.828)" fill="#a4b1fb"/>
      <path id="Path_58" data-name="Path 58" d="M202.813,153.309s16.871-17.52,34.741-15.163C237.554,138.146,226.02,152.45,202.813,153.309Z" transform="translate(-100.4 -125.816)" fill="#a4b1fb"/>
      <path id="Path_59" data-name="Path 59" d="M259.743,143.873A180.07,180.07,0,0,0,152,232.735c-.958,1.843,1.767,3.63,2.732,1.769a176.857,176.857,0,0,1,105.693-87.447c2-.594,1.329-3.782-.683-3.184Z" transform="translate(-151.799 -119.901)" fill="#a4b1fb"/>
    </g>
    <path id="Path_60" data-name="Path 60" d="M184.1,167.516a20.191,20.191,0,0,0-8.9,2.072A21.594,21.594,0,0,0,154.281,153.3c-.048,0-.094.006-.141.008a26.633,26.633,0,1,0-52.192,10.1A17.042,17.042,0,0,0,86.93,174.127a17.01,17.01,0,0,0-26.935,11.023h144.23A20.317,20.317,0,0,0,184.1,167.516Z" transform="translate(9.135 -85.454)" fill="#a4b1fb"/>
    <g id="Group_35" data-name="Group 35" transform="translate(71.18 212.269)">
      <g id="Group_31" data-name="Group 31" transform="translate(14.225 13.198)">
        <path id="Path_61" data-name="Path 61" d="M122.761,188.514,86.276,169.9V329.119l36.485,18.614Z" transform="translate(-49.791 -169.9)" fill="#869bef"/>
        <path id="Path_62" data-name="Path 62" d="M68.1,188.514V347.733l36.485-18.614V169.9Z" transform="translate(-68.102 -169.9)" fill="#a4b1fb"/>
      </g>
      <g id="Group_32" data-name="Group 32" transform="translate(87.174 13.198)">
        <path id="Path_63" data-name="Path 63" d="M159.1,188.514,122.613,169.9V329.119L159.1,347.733Z" transform="translate(-86.128 -169.9)" fill="#869bef"/>
        <path id="Path_64" data-name="Path 64" d="M104.439,188.514V347.733l36.485-18.614V169.9Z" transform="translate(-104.439 -169.9)" fill="#a4b1fb"/>
      </g>
      <g id="Group_33" data-name="Group 33" transform="translate(160.058 13.198)">
        <path id="Path_65" data-name="Path 65" d="M195.4,188.514,158.918,169.9V329.119L195.4,347.733Z" transform="translate(-122.433 -169.9)" fill="#869bef"/>
        <path id="Path_66" data-name="Path 66" d="M140.744,188.514V347.733l36.485-18.614V169.9Z" transform="translate(-140.744 -169.9)" fill="#a4b1fb"/>
      </g>
      <g id="Group_34" data-name="Group 34" transform="translate(233.012 13.198)">
        <path id="Path_67" data-name="Path 67" d="M231.743,188.514,195.258,169.9V329.119l36.485,18.614Z" transform="translate(-158.773 -169.9)" fill="#869bef"/>
        <path id="Path_68" data-name="Path 68" d="M177.084,188.514V347.733l36.485-18.614V169.9Z" transform="translate(-177.084 -169.9)" fill="#a4b1fb"/>
      </g>
      <path id="Path_69" data-name="Path 69" d="M367,354.356l-36.485-18.614L294.044,354.35v.006l-.008,0-.008,0v-.006l-36.469-18.608-36.4,18.572v.042l-.044-.02-.042.02v-.042l-36.4-18.572-36.463,18.6v.01l-.012,0-.01,0v-.01l-36.463-18.6L75.241,354.356V195.138l36.485-18.614,36.473,18.61,36.475-18.61,36.441,18.594,36.443-18.594,36.477,18.61,36.477-18.61L367,195.138Zm-36.5-191.03L294.028,181.94l-36.475-18.614-36.441,18.6-36.439-18.6L148.2,181.94l-36.475-18.614L61.016,189.191V374.819l50.707-25.865,36.048,18.7.018.014.285-.139,36.6-18.572,37.061,18.532,35.819-18.532,35.783,18.985L330.5,348.954l50.707,25.865V189.191Z" transform="translate(-61.016 -163.326)" fill="#dad3f4"/>
    </g>
    <g id="Group_36" data-name="Group 36" transform="translate(321.796 194.116)">
      <path id="Path_70" data-name="Path 70" d="M229.421,176.068a21.784,21.784,0,1,0-43.568,0c0,20.722,21.784,31.348,21.784,31.348S229.421,197.852,229.421,176.068Z" transform="translate(-185.853 -154.284)" fill="#f38000"/>
      <circle id="Ellipse_3" data-name="Ellipse 3" cx="8.767" cy="8.767" r="8.767" transform="translate(13.018 10.36)" fill="#f7f6fc"/>
    </g>
    <g id="Group_37" data-name="Group 37" transform="translate(106.501 299.832)">
      <path id="Path_71" data-name="Path 71" d="M111.708,223.493a16.549,16.549,0,1,0-33.1,0c0,15.741,16.548,23.816,16.548,23.816S111.708,240.043,111.708,223.493Z" transform="translate(-78.61 -206.943)" fill="#f38000"/>
      <path id="Path_72" data-name="Path 72" d="M96.856,217.523a6.66,6.66,0,1,0-6.661,6.661A6.661,6.661,0,0,0,96.856,217.523Z" transform="translate(-73.647 -202.992)" fill="#f7f6fc"/>
    </g>
    <path id="Path_73" data-name="Path 73" d="M204.162,256.3a2.892,2.892,0,1,0-2.893,2.893A2.892,2.892,0,0,0,204.162,256.3Z" transform="translate(148.563 139.704)" fill="#eeedf9"/>
    <g id="Group_38" data-name="Group 38" transform="translate(67.097 458.399)">
      <path id="Path_74" data-name="Path 74" d="M384.895,304.887c0-9.156-74.645-16.578-166.721-16.578S51.453,295.732,51.453,304.887s74.645,16.575,166.721,16.575S384.895,314.043,384.895,304.887Z" transform="translate(-51.453 -283.53)" fill="url(#linear-gradient)"/>
      <path id="Path_75" data-name="Path 75" d="M214.362,286.487l2.666,6.129a.915.915,0,0,0,.482.48l6.127,2.666a.931.931,0,0,1,0,1.706l-6.127,2.664a.926.926,0,0,0-.482.482l-2.666,6.129a.929.929,0,0,1-1.7,0l-2.666-6.129a.941.941,0,0,0-.482-.482l-6.129-2.664a.931.931,0,0,1,0-1.706l6.129-2.666a.929.929,0,0,0,.482-.48l2.666-6.129A.929.929,0,0,1,214.362,286.487Z" transform="translate(-188.942 -285.929)" fill="#312da4"/>
    </g>
    <path id="Path_76" data-name="Path 76" d="M80.027,154.342l2.485,5.714a.853.853,0,0,0,.448.45l5.715,2.485a.867.867,0,0,1,0,1.59l-5.715,2.485a.867.867,0,0,0-.448.45l-2.485,5.713a.867.867,0,0,1-1.59,0l-2.485-5.713a.878.878,0,0,0-.45-.45l-5.713-2.485a.866.866,0,0,1,0-1.59l5.713-2.485a.863.863,0,0,0,.45-.45l2.485-5.714A.867.867,0,0,1,80.027,154.342Z" transform="translate(18.476 39.366)" fill="#869bef"/>
    <path id="Path_1005" data-name="Path 1005" d="M80.027,154.342l2.485,5.714a.853.853,0,0,0,.448.45l5.715,2.485a.867.867,0,0,1,0,1.59l-5.715,2.485a.867.867,0,0,0-.448.45l-2.485,5.713a.867.867,0,0,1-1.59,0l-2.485-5.713a.878.878,0,0,0-.45-.45l-5.713-2.485a.866.866,0,0,1,0-1.59l5.713-2.485a.863.863,0,0,0,.45-.45l2.485-5.714A.867.867,0,0,1,80.027,154.342Z" transform="translate(281.476 -81.634)" fill="#869bef"/>
    <path id="Path_77" data-name="Path 77" d="M69.028,139.564l3.019,6.944a1.055,1.055,0,0,0,.546.544l6.944,3.021a1.053,1.053,0,0,1,0,1.931l-6.944,3.019a1.066,1.066,0,0,0-.546.546l-3.019,6.944a1.052,1.052,0,0,1-1.931,0l-3.019-6.944a1.066,1.066,0,0,0-.546-.546l-6.944-3.019a1.053,1.053,0,0,1,0-1.931l6.944-3.021a1.055,1.055,0,0,0,.546-.544l3.019-6.944A1.053,1.053,0,0,1,69.028,139.564Z" transform="translate(5.065 24.364)" fill="#312da4"/>
    <path id="Path_1004" data-name="Path 1004" d="M69.028,139.564l3.019,6.944a1.055,1.055,0,0,0,.546.544l6.944,3.021a1.053,1.053,0,0,1,0,1.931l-6.944,3.019a1.066,1.066,0,0,0-.546.546l-3.019,6.944a1.052,1.052,0,0,1-1.931,0l-3.019-6.944a1.066,1.066,0,0,0-.546-.546l-6.944-3.019a1.053,1.053,0,0,1,0-1.931l6.944-3.021a1.055,1.055,0,0,0,.546-.544l3.019-6.944A1.053,1.053,0,0,1,69.028,139.564Z" transform="translate(315.065 -125.636)" fill="#312da4"/>
    <g id="Group_40" data-name="Group 40" transform="translate(121.84 237.641)">
      <g id="Group_39" data-name="Group 39">
        <path id="Path_78" data-name="Path 78" d="M260.492,211.184l-1.03-2.921-1.066-.6c-1.692-.956-4.792-2.7-4.605-2.578.259.173.173,1.375.173,1.375l-1.289,1.116-2.232-1.889-4.067.492-1.6.195-.151-.913-.141-.833-.139-.831-9.793-2.232-2.062-.343.259,1.289-4.842-.7-1.086-.157-1.632-3.437-3.094-.173-.857,1.632-2.664-1.889-.9.448-.994.5H214.36l-2.024.825-2.184.893,2.07-1.722,3.75-3.118,1.309-1.088-2.921-4.81-1.809.624-.424.149-1.323-2.056-.225-.349-2.405,2.405-1.289,2.491-1.445-.4-1.646-.458-4.124,2.405-.946,4.21-2.576.43.526,2.028,1.106,4.242-2.959-2.419-1.767-1.445-.946,2.319-.024,1.817-.06,4.455-1.632-2.062-.038-.693-.391-7.211L186.7,203.71l-.345,3.951-4.294-1.546-3.587,2.19-6.121,3.736-2.126,2.128-2,2-2.146-2.405,1.775-2.218.63-.787-2.321-4.469-2.68-.6-.3-.064-1.558-.349L160.411,205s-7.388,5.067-7.472,5.326-5.155,10.566-5.155,10.566l.265.006,3.515.08-.6,3.264,3.867-2.062,1.8-6.7,5.24-3.092-3.351,6.185,4.9-.689-1.116,2.405-3.116,3.051-5.131,5.025-5.412-.516-2.03,2.224-2.431,2.666-.006.006-.689,3.78-5.326.773-1.116,3.694,3.608,1.546,4.431-1.455,1.584-.52,1.46-2.835,5.2,2.046,2.445.962,11.082-5.585.331.275,4.136,3.419-6.784.687-.863.086-1.716,2.148.936.313,4.475,1.492-.767,3.222-.09.385-6.444,1.116-.934-.269-.064-.02-.052-.014L145.4,244.047l-1.945-.564-4.031,3.768-6.506,6.083,3.666,14.2,4.27-.233,4.465-.245,3.865-.211,2.748,8.936,1.734,5.456,4.451,14.015,7.012-10.114,1.249-1.8,3.652-5.266,7.1-14.432-8.476-2.75-.687-10.078,7.1,6.414,1.146-6.645,6.43,2.263,5.94,2.092,2.062,4.924,3.463-1.6,8.908-4.123,3.435,5.27-.8,2.977s1.19,1.466,2.066,2.455c.51.576.913.994.913.867,0-.341.9-1.468.8-1.823l0-.01c-.114-.343-.8-3.437-.8-3.437l.458-1.259,3.092,2.405v-6.071l-.424-.919-.263-.57,4.28-.713,1.219-.2,4.352-4.812-1.947-6.986,3.435-.572,2.291,3.206,1.508-3.465.785-1.8,1.959-1.961,2.309-2.309,1.114-1.114-.229-5.728-2.748-1.259,5.382-5.613,4.872.3.741.044v.917l2.176-.458,2.863-3.895.544,1.488,3.007-1.716-5.842,9.62,2.921-.687,5.585-6.615.43,1.546,3.521-2.578,1.259-.45,1.146-.41-1.2-4.38,2.778-1.9Z" transform="translate(-39.228 -163.763)" fill="#6174e5"/>
        <path id="Path_79" data-name="Path 79" d="M173.936,229.954l-4.7-4.066-.516.974,3.837,4.868,2.348,2.348.286-2.405-1.432-1.26Z" transform="translate(-3.155 -125.665)" fill="#6174e5"/>
        <path id="Path_80" data-name="Path 80" d="M175.523,227.633l-2.291,1.317.915,2.807,3.323.343a8.562,8.562,0,0,0,1.088-2.062c-.058-.343-.114-2-.114-2l.974-1.261-2.636-.628Z" transform="translate(1.386 -125.406)" fill="#6174e5"/>
        <path id="Path_81" data-name="Path 81" d="M178.213,222.286l-.666-.3-.536.171c-.022.064-.41,3.264-.41,3.264l2.277.753,1.2,1.267-.879-2.363-1.267-.644.193-.45Z" transform="translate(4.781 -129.595)" fill="#6174e5"/>
        <path id="Path_82" data-name="Path 82" d="M178.381,227.788l.945-.065.666-1.074-.3-.687-.773-.086-.107-.838-.966-.73-.043.365-.494.043.494.966-.43,1.353Z" transform="translate(5.493 -127.256)" fill="#6174e5"/>
        <path id="Path_83" data-name="Path 83" d="M182.342,228.5l-.63-.572-2.062.915.717.114,1.116.572-.43.345s1.116.687,1.116.857.889.46,1,.516,1.66.343,1.66.343a6.191,6.191,0,0,1,.4.917,6.3,6.3,0,0,0,.974,1.2,6.858,6.858,0,0,0,1.03.516s.544-.917.572-1a17,17,0,0,1,2.062-.056l.191.323.5.851,2.319.171-1.231-.887-.887-1.1-.544-.675-.259-.946a14.616,14.616,0,0,0-1.259-.915c-.173-.058-3.551-1.433-3.551-1.433l-1.777.974-.428-.974Z" transform="translate(7.853 -123.609)" fill="#6174e5"/>
        <path id="Path_84" data-name="Path 84" d="M177.5,231.155s-.343-.056-.343-.014-1.576-.9-1.576-.9l-.371.171-1.49-.056-.831-.4-.687.058-.157.171.128.273.084.315,1.433.414.9.016,1.146.3h1.144l.96.373Z" transform="translate(0.187 -121.569)" fill="#6174e5"/>
        <path id="Path_85" data-name="Path 85" d="M176.678,228.076c0,.064-.43,1.8-.408,1.869s.086.815.086.815l-.022,1.116.751-.106.259-.538-.066-.966.5.859.966.022-.536-1.375.321-.452.343-.494-.494.173-1.03.279-.086-.731.494-.43,1.739.279.6-.751-1.01.171-1.911-.106S176.678,228.011,176.678,228.076Z" transform="translate(4.447 -123.893)" fill="#6174e5"/>
        <path id="Path_86" data-name="Path 86" d="M197.884,239.657a1.936,1.936,0,0,0-.389-.677c-.257-.086-2.319-1.8-2.319-1.8a5.948,5.948,0,0,0-.516-1.546c-.343-.6-1.074-2.447-1.074-2.447l-1.674,1.588-.259,1.546-.974-.446-1.086-.5-.345-2.835-1.116-.689-1.383-.042-1.365-.042-.343,2.062s-.775.944-1.032.773-1.718-1.289-1.718-1.289l-.424,1.2-.09.259-1.2,1.8c-2.146.773-3.092,1.116-3.092,1.116l-2.921,1.116.43,3.007.43,3.178-.171.514-.6,1.807,3.608-.343,1.116.6,3.264-1.546,3.437-.43,2.234,1.632.679-1.247.351-.644,1.2,3.953,2.062,1.459,2.664-.514,1.889.084,1.375-2.662.171-2.148,1.118-.257s-.773-2.578-.859-2.835C198.893,242.232,198.307,240.606,197.884,239.657Z" transform="translate(2.723 -119.743)" fill="#6174e5"/>
        <path id="Path_87" data-name="Path 87" d="M158.162,230.331l-1.2,2.019-2.148,1.031-.129,2.319-.429,2.319,1.589,2.019,2.362-4.3.043-2.663.644.215-.215-2.62Z" transform="translate(-17.735 -121.188)" fill="#6174e5"/>
        <path id="Path_88" data-name="Path 88" d="M149.711,192.287l4.639-6.529-4.3-.343-3.78,1.89.516-2.405-2.234.172-4.467-1.89,6.872-2.921-.515-1.89h-4.124l1.2-2.062-1.546-.344-5.326,1.89-1.559,2.37-2.736,4.159-3.092-2.405-4.467,1.031-.528.858-4.97,8.076,1.088,2.463-1.152.85-3.659,2.7,2.749,2.405,2.749-.229L117.754,203l1.947,1.26,4.925.229,1.718,6.3,2.054,3.389.237.391-1.145,9.049,1.377,3.236L129.78,229l3.207,3.78,2.978-6.185,1.4-.862L140.5,223.8l1.421-.874,4.582-3.207-4.009-4.066,2.577-3.608,1.718-2.233,2.577-2.405-.664-6.642-.31-3.1-.057-.565.347-1.215Z" transform="translate(-56.703 -175.965)" fill="#6174e5"/>
        <path id="Path_89" data-name="Path 89" d="M169.809,266.211c-.572-.285-3.094-2.232-3.094-2.232l-2.977-.572-4.3-.574a3.654,3.654,0,0,0,.058-1.66c-.229-.458-1.431-2.748-1.431-2.748l-2.636-.114-5.326-3.264-5.8.532-.444.04-.875,1.221c-2.7-1.359-6.555-3.322-7.938-4.132a4.433,4.433,0,0,1-.466-.3c-.859-.687-4.294-2.921-4.637-3.608s0-5.842,0-5.842l6.529-.514,4.467,2.748v-5.842s3.78-5.153,4.294-5.5c.209-.136,1.112-.859,2.116-1.674,1.494-1.209,3.212-2.62,3.212-2.62l-1.375-2.921,4.639-2.578,1.716,3.608.331-2.475.357-2.678-3.264-4.3-2.22-3.985-.3-.538-.6,1.213-1.293,2.624-1.219-.731-.2-.118-.3-.183s-.036-.582-.1-1.3a10.531,10.531,0,0,0-.414-2.594,1.809,1.809,0,0,0-.361-.251,21.652,21.652,0,0,0-3.993-1.811c-.026.082-.263,1.468-.5,2.893-.261,1.564-.528,3.178-.528,3.178l1.014,1.815.361.646L141,220.28l.4,1.833-2-1.03a3.73,3.73,0,0,0-.8-1.088c-.076-.054-.317-.2-.66-.4-1.455-.837-4.722-2.64-4.722-2.64l-1.261.63-.745-5.5,2.937-3.084,1.644-1.726,4.354-3.724-1.833-3.035-2.006,3.15s-2.062-2.863-2.405-3.321a61.679,61.679,0,0,1-1.6-6.129l-6.757,7.217a20.413,20.413,0,0,0-2.971-.13,1.139,1.139,0,0,0-.43.1.28.28,0,0,0-.036.028,7.068,7.068,0,0,1-1.319.667c-1.136.494-2.576,1.052-2.576,1.052l-.55-.46-2.885-2.405-7.789-.8s-2.634.915-2.977.915c-.074,0-.6-.159-1.393-.406-2.13-.669-6.171-1.985-8.363-2.594a6.642,6.642,0,0,0-1.47-.321c-.687.114-5.726,3.549-5.726,3.549l-.482,5.842-.153,1.845-.169,2.05,1.965,3.5,1.7,3.029,7.789-3.78.711.391,2.839,1.556,4,4.3,6.769,7.273.454,5.442,0,.056,1.068,2.162,3.4,6.886,2.291,6.071,2.863-2.634,3.31,6.715.584,1.186,5.284,2.068,10.4,4.071-2.744,3.826,1.65,3.7L143.177,272l3.969,1.7.04.018-1.373,6.087-.229,1.014v5.5l-.9,7.5-.131,1.092.247,2.01.385,3.142.171,1.377,2.062,1.718h1.088L147.7,298l.349-.821,1.6-3.76s2.349-3.208,2.463-3.379,3.608-2.062,3.608-2.062l-.478-2.188-.323-1.478a27.928,27.928,0,0,0,3.722-.63c0-.171,3.15-5.9,3.322-6.013s4.18-1.6,4.18-1.6l.363-4.232.094-1.094S170.381,266.5,169.809,266.211Z" transform="translate(-86.251 -157.57)" fill="#6174e5"/>
        <path id="Path_90" data-name="Path 90" d="M187.391,209.844l-.743-1.52-.849.071-.672,1.662.813,1.591Z" transform="translate(13.372 -143.361)" fill="#6174e5"/>
        <path id="Path_91" data-name="Path 91" d="M187.825,210.742l-.863,1.182L184.747,214l-.377,2.074s-.157.359-.381.863c-.195.438-.442.984-.681,1.5-.293.63-.572,1.207-.731,1.468a.973.973,0,0,1-.092.133,14.988,14.988,0,0,0-1.038,1.508l2.7-1.257.482-.225.2-.092.343-.161.325-.151,1.132-1.6.472-3.3,1.413-1.038.566-2.829-.472-1.227Z" transform="translate(9.664 -142.013)" fill="#6174e5"/>
      </g>
    </g>
    <path id="Path_92" data-name="Path 92" d="M169.779,235.506l1.989,4.571a.683.683,0,0,0,.359.359l4.569,1.99a.692.692,0,0,1,0,1.271l-4.569,1.99a.67.67,0,0,0-.359.359l-1.989,4.571a.694.694,0,0,1-1.271,0l-1.989-4.571a.67.67,0,0,0-.359-.359l-4.569-1.99a.693.693,0,0,1,0-1.271l4.569-1.99a.683.683,0,0,0,.359-.359l1.989-4.571A.694.694,0,0,1,169.779,235.506Z" transform="translate(111.077 121.248)" fill="#312da4"/>
    <g id="Group_46" data-name="Group 46" transform="translate(296.598 352.635)">
      <g id="Group_42" data-name="Group 42" transform="translate(0 0)">
        <circle id="Ellipse_4" data-name="Ellipse 4" cx="55.332" cy="55.332" r="55.332" transform="translate(1.376 1.376)" fill="#312da4"/>
        <g id="Group_41" data-name="Group 41">
          <circle id="Ellipse_5" data-name="Ellipse 5" cx="40.099" cy="40.099" r="40.099" transform="translate(0 56.708) rotate(-45)" fill="#eeedf9"/>
          <path id="Path_93" data-name="Path 93" d="M216.572,236.037A40.067,40.067,0,0,1,191.381,311.7a40.078,40.078,0,1,0,25.191-75.664Z" transform="translate(-151.085 -218.433)" fill="#dad3f4"/>
        </g>
      </g>
      <g id="Group_43" data-name="Group 43" transform="translate(52.892 22.364)">
        <path id="Path_94" data-name="Path 94" d="M205.288,242.224a3.816,3.816,0,1,1-3.816-3.816A3.816,3.816,0,0,1,205.288,242.224Z" transform="translate(-197.655 -238.408)" fill="#312da4"/>
        <circle id="Ellipse_6" data-name="Ellipse 6" cx="3.816" cy="3.816" r="3.816" transform="translate(0.001 60.579)" fill="#312da4"/>
      </g>
      <g id="Group_44" data-name="Group 44" transform="translate(22.602 52.654)">
        <path id="Path_95" data-name="Path 95" d="M186.383,253.5a3.816,3.816,0,1,1-3.816,3.816A3.816,3.816,0,0,1,186.383,253.5Z" transform="translate(-182.567 -253.496)" fill="#312da4"/>
        <path id="Path_96" data-name="Path 96" d="M216.559,253.5a3.816,3.816,0,1,1-3.816,3.816A3.816,3.816,0,0,1,216.559,253.5Z" transform="translate(-152.163 -253.496)" fill="#312da4"/>
      </g>
      <g id="Group_45" data-name="Group 45" transform="translate(43.514 41.953)">
        <path id="Path_97" data-name="Path 97" d="M212.353,255.793l-19.369-7.627,7.627,19.369Z" transform="translate(-192.984 -248.166)" fill="#312da4"/>
        <path id="Path_98" data-name="Path 98" d="M196.8,263.721l19.369,7.627-7.627-19.369Z" transform="translate(-189.142 -244.324)" fill="#869bef"/>
      </g>
    </g>
    <g id="Group_47" data-name="Group 47" transform="translate(121.891 237.641)">
      <path id="Path_99" data-name="Path 99" d="M89.892,215.465l7.789-3.78.711.391,2.839,1.556,4,4.3L112,225.2l.454,5.442,0,.056,1.068,2.162,3.4,6.886,2.291,6.071,2.863-2.634.685,1.385V199.862c-.074,0-.155,0-.219.01a1.1,1.1,0,0,0-.43.1.166.166,0,0,0-.036.026,7.069,7.069,0,0,1-1.319.667c-1.136.494-2.574,1.052-2.574,1.052l-.552-.46-2.885-2.405-7.789-.8s-2.634.915-2.977.915c-.074,0-.6-.159-1.393-.406-2.13-.669-6.171-1.985-8.363-2.594a6.644,6.644,0,0,0-1.47-.321c-.687.114-5.726,3.549-5.726,3.549l-.482,5.842-.153,1.845-.118,1.447v.691l1.915,3.411Z" transform="translate(-86.276 -156.133)" fill="#4d5bdb"/>
      <path id="Path_100" data-name="Path 100" d="M144.544,210.112l-2.431,2.665-.006.007-.687,3.78-5.326.773-1.117,3.694,3.608,1.546,4.43-1.456,1.583-.52,1.46-2.835.583.229v-10.1l-.068-.006Z" transform="translate(-37.208 -143.802)" fill="#4d5bdb"/>
      <path id="Path_101" data-name="Path 101" d="M143.46,215.675l-4.032,3.769-6.506,6.081,3.665,14.2,4.269-.233,4.465-.244,3.388-.185V217.2l-3.306-.958Z" transform="translate(-39.278 -135.955)" fill="#4d5bdb"/>
      <path id="Path_102" data-name="Path 102" d="M140.59,205.374l.662.014v-1.907l-.928,1.887Z" transform="translate(-31.819 -148.241)" fill="#4d5bdb"/>
      <path id="Path_103" data-name="Path 103" d="M125.9,232.777l2.978-6.185,1.4-.862,3.135-1.929,1.421-.874,4.582-3.207-4.009-4.066,2.577-3.608,1.718-2.233,2.577-2.405-.664-6.642-.31-3.1-.056-.565.347-1.215,1.027-3.6,4.639-6.529-4.3-.343-3.78,1.89.516-2.405-2.234.172L133,183.181l6.872-2.921-.516-1.89h-4.123l1.2-2.062-1.546-.344-5.326,1.89-1.559,2.37-2.736,4.159-2.656-2.066v46.493l.08.186Z" transform="translate(-49.665 -175.965)" fill="#4d5bdb"/>
      <path id="Path_104" data-name="Path 104" d="M129.507,242.706l.363-4.232.094-1.094s3.78-4.238,3.208-4.525-3.094-2.232-3.094-2.232l-2.977-.572-4.3-.574a3.654,3.654,0,0,0,.058-1.66c-.048-.094-.141-.277-.251-.488v21.788c.923-1.733,2.59-4.724,2.714-4.806C125.5,244.2,129.507,242.706,129.507,242.706Z" transform="translate(-49.665 -124.214)" fill="#4d5bdb"/>
      <path id="Path_105" data-name="Path 105" d="M164.459,259.863l3.463-1.6,8.908-4.123,3.437,5.27-.8,2.977s1.19,1.466,2.066,2.455c.51.576.913.994.913.867,0-.341.9-1.468.8-1.823l0-.01c-.114-.343-.8-3.437-.8-3.437l.458-1.259,3.092,2.405v-6.071l-.424-.919-.263-.57,4.28-.713,1.219-.2,4.352-4.812-1.947-6.986,2.194-.365V198.984l-.361.687-2.664-1.889-.9.448-.994.5h-2.321l-2.024.825-2.186.893,2.072-1.722,3.75-3.118,1.309-1.088-2.921-4.81-1.809.624-.424.149-1.323-2.056-.225-.349-2.405,2.405-1.289,2.491-1.445-.4-1.646-.458-4.123,2.405-.946,4.21-2.578.43.53,2.028,1.1,4.242-2.959-2.419-1.767-1.445-.946,2.319-.024,1.817-.06,4.455L164.2,208.09l-.038-.693-.391-7.211-3.264,3.523-.345,3.951-1.245-.448v46.5l3.479,1.225Z" transform="translate(-13.086 -163.763)" fill="#4d5bdb"/>
      <path id="Path_106" data-name="Path 106" d="M173.936,229.954l-4.7-4.066-.515.973,3.837,4.868,2.348,2.348.286-2.405-1.432-1.26Z" transform="translate(-3.206 -125.665)" fill="#4d5bdb"/>
      <path id="Path_107" data-name="Path 107" d="M177.47,232.1a8.562,8.562,0,0,0,1.088-2.062c-.058-.343-.114-2-.114-2l.974-1.261-2.636-.628-1.259,1.488-2.291,1.317.915,2.807Z" transform="translate(1.336 -125.406)" fill="#4d5bdb"/>
      <path id="Path_108" data-name="Path 108" d="M177.01,222.158c-.022.064-.41,3.264-.41,3.264l.986.325v-3.742l-.04-.018Z" transform="translate(4.731 -129.595)" fill="#4d5bdb"/>
      <path id="Path_109" data-name="Path 109" d="M177.5,231.155s-.343-.056-.343-.014-1.576-.9-1.576-.9l-.371.171-1.49-.056-.831-.4-.687.058-.159.171.131.273.084.315,1.433.414.9.016,1.146.3h1.144l.96.373Z" transform="translate(0.135 -121.569)" fill="#4d5bdb"/>
      <path id="Path_110" data-name="Path 110" d="M176.678,228.043c0,.064-.43,1.8-.408,1.869s.086.815.086.815l-.022,1.116.751-.106.259-.538-.066-.966.494.859.149,0v-2.008l-.576.157-.086-.731.494-.43.169.028v-.393l-.749-.042S176.678,227.979,176.678,228.043Z" transform="translate(4.397 -123.861)" fill="#4d5bdb"/>
      <path id="Path_111" data-name="Path 111" d="M174.558,236.226l.43,3.007.43,3.178-.171.514-.6,1.807,3.608-.345,1.116.6.277-.13V234.327c-1.488.536-2.166.783-2.166.783Z" transform="translate(2.672 -117.162)" fill="#4d5bdb"/>
      <path id="Path_112" data-name="Path 112" d="M195.258,202.217v1.463l.366-.131Z" transform="translate(23.529 -149.515)" fill="#4d5bdb"/>
      <path id="Path_113" data-name="Path 113" d="M197.685,201.448l-1.03-2.921-1.066-.6-.331-.187v5.37l1.941-1.329Z" transform="translate(23.529 -154.027)" fill="#4d5bdb"/>
    </g>
    <path id="Path_114" data-name="Path 114" d="M218.409,286.263a18.478,18.478,0,0,0-8.127,1.891,19.732,19.732,0,0,0-19.114-14.88c-.042,0-.084,0-.128.006a24.332,24.332,0,1,0-47.683,9.233,15.571,15.571,0,0,0-13.722,9.791,15.539,15.539,0,0,0-24.607,10.07H236.8A18.565,18.565,0,0,0,218.409,286.263Z" transform="translate(-3.491 132.44)" fill="#a4b1fb"/>
  </g>
</svg>
