<svg xmlns="http://www.w3.org/2000/svg" xmlns:xlink="http://www.w3.org/1999/xlink" width="352.89" height="516.845" viewBox="0 0 352.89 516.845">
  <defs>
    <linearGradient id="linear-gradient" x1="0.496" y1="1.856" x2="0.508" y2="-2.044" gradientUnits="objectBoundingBox">
      <stop offset="0" stop-color="#a4b1fb"/>
      <stop offset="1" stop-color="#c8d2fc"/>
    </linearGradient>
  </defs>
  <g id="Group_347" data-name="Group 347" transform="translate(-533.613 7.461)">
    <path id="Path_117" data-name="Path 117" d="M732.37,189.1a16.964,16.964,0,0,0-7.457,1.735,18.1,18.1,0,0,0-17.536-13.651c-.04,0-.078,0-.119,0a22.324,22.324,0,1,0-43.748,8.471,14.285,14.285,0,0,0-12.589,8.982,14.258,14.258,0,0,0-22.576,9.241h120.9A17.029,17.029,0,0,0,732.37,189.1Z" transform="translate(81.695 -56.57)" fill="#dad3f4"/>
    <path id="Path_118" data-name="Path 118" d="M650.737,174.525a20.653,20.653,0,0,0-9.086,2.115A22.06,22.06,0,0,0,620.282,160c-.049,0-.1,0-.144.006a27.205,27.205,0,1,0-53.314,10.323,17.407,17.407,0,0,0-15.342,10.947,17.373,17.373,0,0,0-27.513,11.261H671.3A20.753,20.753,0,0,0,650.737,174.525Z" transform="translate(9.644 14.407)" fill="#a4b1fb"/>
    <path id="Path_119" data-name="Path 119" d="M886.476,303.959c0-8.643-78.877-15.65-176.177-15.65s-176.179,7.007-176.179,15.65S613,319.605,710.3,319.605,886.476,312.6,886.476,303.959Z" transform="translate(0.027 189.779)" fill="url(#linear-gradient)"/>
    <g id="Group_58" data-name="Group 58" transform="translate(534.395 361.185)">
      <path id="Path_120" data-name="Path 120" d="M564.547,289.313s7.31-31.908-8.507-50.3C556.041,239.012,548.422,262.539,564.547,289.313Z" transform="translate(-488.802 -225.689)" fill="#4d5bdb"/>
      <path id="Path_121" data-name="Path 121" d="M560.86,277.853s.806-29.3-16.314-42.664C544.546,235.189,542,257.182,560.86,277.853Z" transform="translate(-499.805 -229.977)" fill="#4d5bdb"/>
      <path id="Path_122" data-name="Path 122" d="M553.2,267.627s-1.824-24.993-17.536-34.9C535.667,232.732,535.383,251.662,553.2,267.627Z" transform="translate(-509.633 -232.732)" fill="#4d5bdb"/>
      <path id="Path_123" data-name="Path 123" d="M563.049,249.678s-23.9-7.542-38.907,3.4C524.142,253.075,541.627,260.334,563.049,249.678Z" transform="translate(-522.557 -216.569)" fill="#4d5bdb"/>
      <path id="Path_124" data-name="Path 124" d="M574.232,256.417s-27.2-8.583-44.279,3.863C529.953,260.28,549.85,268.543,574.232,256.417Z" transform="translate(-516.041 -209.406)" fill="#4d5bdb"/>
      <path id="Path_125" data-name="Path 125" d="M583.649,263.258s-29.286-9.241-47.679,4.162C535.97,267.421,557.4,276.318,583.649,263.258Z" transform="translate(-509.293 -201.981)" fill="#4d5bdb"/>
      <path id="Path_126" data-name="Path 126" d="M569.647,302.775s13.2-34.912-1.822-58.14C567.825,244.635,555.578,270.033,569.647,302.775Z" transform="translate(-479.111 -219.384)" fill="#4d5bdb"/>
      <path id="Path_127" data-name="Path 127" d="M594.316,274.671s-31.652-14.975-54.506-2.684C539.81,271.987,562.637,285.358,594.316,274.671Z" transform="translate(-504.987 -194.143)" fill="#4d5bdb"/>
      <path id="Path_128" data-name="Path 128" d="M553.57,256.235s-12.971-19.282-30.175-20.026C523.395,236.209,531.876,251.581,553.57,256.235Z" transform="translate(-523.395 -228.833)" fill="#4d5bdb"/>
      <path id="Path_129" data-name="Path 129" d="M536.529,243.745a172.044,172.044,0,0,1,86.659,101.477c.594,1.892-2.263,3.123-2.864,1.211a168.991,168.991,0,0,0-84.963-99.805c-1.78-.889-.624-3.778,1.169-2.883Z" transform="translate(-510.974 -220.572)" fill="#4d5bdb"/>
    </g>
    <g id="Group_59" data-name="Group 59" transform="translate(643.299 362.29)">
      <path id="Path_130" data-name="Path 130" d="M598.814,287.966S593.75,253.9,611.841,235.9C611.841,235.9,617.913,261.2,598.814,287.966Z" transform="translate(-555.454 -225.287)" fill="#a4b1fb"/>
      <path id="Path_131" data-name="Path 131" d="M606.339,276.174s1.544-30.8,20.593-43.422C626.932,232.753,627.812,256.031,606.339,276.174Z" transform="translate(-546.283 -228.813)" fill="#a4b1fb"/>
      <path id="Path_132" data-name="Path 132" d="M615.483,266.069S619.437,240,636.725,230.9C636.725,230.9,635.48,250.774,615.483,266.069Z" transform="translate(-536.029 -230.896)" fill="#a4b1fb"/>
      <path id="Path_133" data-name="Path 133" d="M617.074,247.45s25.682-5.963,40.534,6.736C657.608,254.186,638.677,260.376,617.074,247.45Z" transform="translate(-534.245 -213.9)" fill="#a4b1fb"/>
      <path id="Path_134" data-name="Path 134" d="M607.788,253.744s29.229-6.784,46.131,7.667C653.919,261.411,632.373,268.454,607.788,253.744Z" transform="translate(-544.658 -207.058)" fill="#a4b1fb"/>
      <path id="Path_135" data-name="Path 135" d="M599.247,260.243s31.474-7.306,49.673,8.252C648.92,268.5,625.72,276.082,599.247,260.243Z" transform="translate(-554.236 -199.907)" fill="#a4b1fb"/>
      <path id="Path_136" data-name="Path 136" d="M592.186,301.807s-11-37.7,6.653-60.836C598.839,240.971,609.614,268.611,592.186,301.807Z" transform="translate(-565.95 -219.598)" fill="#a4b1fb"/>
      <path id="Path_137" data-name="Path 137" d="M591.1,271.123S625.527,258,648.5,272.754C648.5,272.754,623.463,284.916,591.1,271.123Z" transform="translate(-563.369 -191.817)" fill="#a4b1fb"/>
      <path id="Path_138" data-name="Path 138" d="M622.394,254.1s15.179-19.167,33.288-18.543C655.681,235.552,645.53,250.983,622.394,254.1Z" transform="translate(-528.279 -225.691)" fill="#a4b1fb"/>
      <path id="Path_139" data-name="Path 139" d="M677.339,242.44a181.016,181.016,0,0,0-99.177,99.372c-.779,1.937,2.119,3.462,2.906,1.506a177.784,177.784,0,0,1,97.261-97.76c1.941-.787.963-3.912-.991-3.119Z" transform="translate(-578.03 -218.094)" fill="#a4b1fb"/>
    </g>
    <g id="Group_60" data-name="Group 60" transform="translate(790.6 237.98)">
      <path id="Path_140" data-name="Path 140" d="M677.565,191.594a14.108,14.108,0,1,0-28.215,0c0,13.42,14.108,20.3,14.108,20.3S677.565,205.7,677.565,191.594Z" transform="translate(-649.35 -177.484)" fill="#f38000"/>
      <path id="Path_141" data-name="Path 141" d="M664.678,186.326A5.677,5.677,0,1,0,659,192,5.679,5.679,0,0,0,664.678,186.326Z" transform="translate(-644.893 -173.937)" fill="#ede7fd"/>
    </g>
    <g id="Group_61" data-name="Group 61" transform="translate(598.963 322.871)">
      <path id="Path_142" data-name="Path 142" d="M584.758,230.371a12.871,12.871,0,1,0-25.742,0c0,12.243,12.871,18.522,12.871,18.522S584.758,243.241,584.758,230.371Z" transform="translate(-559.016 -217.5)" fill="#f38000"/>
      <path id="Path_143" data-name="Path 143" d="M573,225.564a5.179,5.179,0,1,0-5.181,5.181A5.179,5.179,0,0,0,573,225.564Z" transform="translate(-554.95 -214.263)" fill="#ede7fd"/>
    </g>
    <g id="Group_64" data-name="Group 64" transform="translate(570.125 179.824)">
      <rect id="Rectangle_22" data-name="Rectangle 22" width="27.536" height="43.711" rx="2.37" transform="translate(304.49 120.983) rotate(167.304)" fill="#312da4"/>
      <g id="Group_63" data-name="Group 63" transform="translate(0 160.003)">
        <rect id="Rectangle_23" data-name="Rectangle 23" width="52.862" height="107.429" rx="4.46" transform="matrix(-0.907, -0.421, 0.421, -0.907, 47.938, 145.894)" fill="#4d5bdb"/>
        <path id="Path_144" data-name="Path 144" d="M702.9,218.821h0a4.262,4.262,0,0,1,2.068,5.662l-64.32,138.4a4.265,4.265,0,0,1-5.664,2.068h0a4.263,4.263,0,0,1-2.068-5.662l64.32-138.4A4.264,4.264,0,0,1,702.9,218.821Z" transform="translate(-582.642 -218.422)" fill="#312da4"/>
        <g id="Group_62" data-name="Group 62" transform="translate(39.398 130.438)">
          <ellipse id="Ellipse_8" data-name="Ellipse 8" cx="13.997" cy="13.997" rx="13.997" ry="13.997" transform="translate(0)" fill="#312da4"/>
          <path id="Path_145" data-name="Path 145" d="M662.852,287.171a6.2,6.2,0,1,1,3.01,8.235A6.2,6.2,0,0,1,662.852,287.171Z" transform="translate(-654.479 -275.787)" fill="#dad3f4"/>
        </g>
        <path id="Path_146" data-name="Path 146" d="M698.647,233.116l30.778,14.3a9.46,9.46,0,0,1,5.452,9.116l-29.21-13.575a9.461,9.461,0,0,0-10.321,1.551l37.524,17.438-1.347,2.9L693.337,247.1c-.079.148-.166.295-.238.45l-3.571,7.684,38.207,17.759-1.347,2.9L688.18,258.136l-3.785,8.146L722.6,284.039l-1.349,2.9-38.207-17.756-3.787,8.146,38.209,17.756-1.347,2.9-38.209-17.758-3.787,8.146,38.209,17.759-1.347,2.9L672.78,291.273,669,299.419,707.2,317.176l-1.347,2.9-38.209-17.757-3.785,8.146,38.209,17.756-1.349,2.9-38.207-17.758-3.787,8.146,38.209,17.759-1.347,2.9L657.381,324.41l-1.583,3.4a9.44,9.44,0,0,0-.861,3.452l-1.566-.728a9.463,9.463,0,0,1-4.593-12.569l37.3-80.26A9.461,9.461,0,0,1,698.647,233.116Z" transform="translate(-644.79 -202.935)" fill="#312da4" opacity="0.33"/>
      </g>
      <path id="Path_147" data-name="Path 147" d="M675.071,174.013l-43.629,26.344a16.508,16.508,0,0,0-6.468,7.238l-23.635,51.426,17.75,4.873,17.353-39.045a12.02,12.02,0,0,1,7.126-6.5l36.083-12.232Z" transform="translate(-490.782 -108.221)" fill="#a4b1fb"/>
      <path id="Path_148" data-name="Path 148" d="M610.074,290.5v6.689a3.955,3.955,0,0,0,3.751,4.13h37.541c3.208,0,5.092-4.031,3.174-6.863-2.334-3.443-17.477-7.463-25.585-10.253l-15.2-.549Z" transform="translate(-484.976 14.736)" fill="#312da4"/>
      <path id="Path_149" data-name="Path 149" d="M559.951,290.665v6.689a3.954,3.954,0,0,0,3.749,4.13h37.543c3.208,0,5.089-4.031,3.172-6.861-2.332-3.445-17.474-7.463-25.584-10.253l-15.2-.552Z" transform="translate(-328.518 14.919)" fill="#312da4"/>
      <path id="Path_150" data-name="Path 150" d="M602.289,217.843l40.648,141.2-19.523,6.1-51.5-124.172,20.953-23.127Z" transform="translate(-391.65 -59.068)" fill="#312da4"/>
      <path id="Path_151" data-name="Path 151" d="M632.526,217.843h41.13l-58.6,141.022-21.439,5.753,36.126-117.141S630.746,230.578,632.526,217.843Z" transform="translate(-468.397 -59.068)" fill="#4d5bdb"/>
      <path id="Path_152" data-name="Path 152" d="M639.726,182.914c2.565,18.176,7.779,60.348,4.892,84.8l-56.74.74s-.274-29.159,2.092-54.406c1.449-15.47,7.16-29.785,21.486-39.783l.393-.274,17.807.11A10.234,10.234,0,0,1,639.726,182.914Z" transform="translate(-428.019 -108.243)" fill="#dad3f4"/>
      <path id="Path_153" data-name="Path 153" d="M627.184,164.066s.289-14.39-12.4-15.707c-25.43-2.641-34.514,21.263-22.441,37.5s28.531-12.5,28.531-12.5Z" transform="translate(-408.034 -137.217)" fill="#4d5bdb"/>
      <path id="Path_154" data-name="Path 154" d="M621.792,168.052c0,11.685-3.475,21.051-13.036,21.051a15.577,15.577,0,0,1-4.86-.81v6.046H587.064V177.454s13.84-3.874,14.589-8.252v2.319l3.865,1.237.617-10.62c0-2.1,4.048-3.85,6.139-4.014,3.725-.289,9.008-.963,9.625-2.467Z" transform="translate(-402.75 -128.807)" fill="#ef957d"/>
      <path id="Path_155" data-name="Path 155" d="M596.391,165.453a4.643,4.643,0,1,1,4.635,4.917A4.783,4.783,0,0,1,596.391,165.453Z" transform="translate(-406.298 -123.334)" fill="#ef957d"/>
      <path id="Path_156" data-name="Path 156" d="M612.383,176.769v6.046H595.551V165.931C600.059,174.574,612.383,176.769,612.383,176.769Z" transform="translate(-411.237 -117.284)" fill="#e2715a"/>
      <path id="Path_157" data-name="Path 157" d="M622.116,169.626S644.8,165.46,627.9,143c0,0-5.2,9.173-13.66,5.325-10.187-4.631-34.73-1.621-32.878,25.7.794,11.7,10.794,2.355,23.153-1.621C611.936,170.019,622.116,169.626,622.116,169.626Z" transform="translate(-402.711 -143)" fill="#4d5bdb"/>
      <path id="Path_158" data-name="Path 158" d="M648.792,217.794s0,16.447-7.832,14.88c-2.514-.5-4.627-1.006-6.332-1.457a5.021,5.021,0,0,1-3.4-6.721l4.247-10.618S648.532,217.794,648.792,217.794Z" transform="translate(-522.574 -63.515)" fill="#ef957d"/>
      <path id="Path_159" data-name="Path 159" d="M587.868,187.083l34.709,26.537c.974,14.2,1.292,28.555.008,39.416l-2.113.028c-2.887-10.223-7.811-25.627-12.737-31.673C600.079,211.993,587.868,187.083,587.868,187.083Z" transform="translate(-405.987 -93.564)" fill="#a4b1fb"/>
      <path id="Path_160" data-name="Path 160" d="M582.963,183.568l16.1,24.282,52.907-3.131,3.133,16.706-61.261,10.442-29.961-35a11.632,11.632,0,0,1,5.268-17.746h0A11.631,11.631,0,0,1,582.963,183.568Z" transform="translate(-382 -103.344)" fill="#dad3f4"/>
      <path id="Path_161" data-name="Path 161" d="M547.767,194.153s13.227-7.31,15.315-6.267-1.74,5.221-1.74,5.221l9.8-1.4a8.033,8.033,0,0,1,8.948,6.091h0a8.019,8.019,0,0,1-5.738,9.621c-7.586,2-18.817,4.546-23.455,3.441Z" transform="translate(-277.798 -92.778)" fill="#ef957d"/>
    </g>
    <path id="Path_162" data-name="Path 162" d="M731.708,143.037h0c-1.657-4.249-14.89-3.055-19.625-1.209l-16.842,6.663-37.518-24.952-7.546,4.644,24.641,28.4c-14.946,5.921-28.743,11.4-28.953,11.522l-9.933-8.089-6.719,2.249,10.238,19.479.042-.059a9.149,9.149,0,0,0,10.263,2.179l76.378-29.785C730.87,152.225,733.365,147.284,731.708,143.037Z" transform="translate(130.668 -131)" fill="#a4b1fb"/>
    <path id="Path_163" data-name="Path 163" d="M667.172,208.767l3.348,7.7a1.154,1.154,0,0,0,.6.6l7.695,3.348a1.166,1.166,0,0,1,0,2.141l-7.695,3.348a1.169,1.169,0,0,0-.6.6l-3.348,7.7a1.169,1.169,0,0,1-2.143,0l-3.346-7.7a1.18,1.18,0,0,0-.607-.6l-7.694-3.348a1.167,1.167,0,0,1,0-2.141l7.694-3.348a1.165,1.165,0,0,0,.607-.6l3.346-7.7A1.169,1.169,0,0,1,667.172,208.767Z" transform="translate(144.986 94.791)" fill="#4d5bdb"/>
    <path id="Path_164" data-name="Path 164" d="M587.678,128.2l2.533,5.825a.879.879,0,0,0,.458.458l5.825,2.533a.884.884,0,0,1,0,1.621l-5.825,2.535a.883.883,0,0,0-.458.456l-2.533,5.825a.884.884,0,0,1-1.621,0l-2.535-5.825a.882.882,0,0,0-.458-.456l-5.825-2.535a.885.885,0,0,1,0-1.621l5.825-2.533a.879.879,0,0,0,.458-.458l2.535-5.825A.884.884,0,0,1,587.678,128.2Z" transform="translate(59.787 4.629)" fill="#312da4"/>
    <path id="Path_165" data-name="Path 165" d="M546.089,213.568,549,220.255a1.02,1.02,0,0,0,.526.526l6.687,2.906a1.015,1.015,0,0,1,0,1.861l-6.687,2.908a1.012,1.012,0,0,0-.526.526l-2.908,6.685a1.014,1.014,0,0,1-1.86,0l-2.906-6.685a1.02,1.02,0,0,0-.526-.526l-6.687-2.908a1.015,1.015,0,0,1,0-1.861l6.687-2.906a1.027,1.027,0,0,0,.526-.526l2.906-6.687A1.015,1.015,0,0,1,546.089,213.568Z" transform="translate(11.332 100.278)" fill="#a4b1fb"/>
  </g>
</svg>
