<svg xmlns="http://www.w3.org/2000/svg" xmlns:xlink="http://www.w3.org/1999/xlink" width="375" height="812" viewBox="0 0 375 812">
  <defs>
    <clipPath id="clip-path">
      <rect id="Rectangle_58" data-name="Rectangle 58" width="375" height="812" fill="none"/>
    </clipPath>
  </defs>
  <g id="Group_350" data-name="Group 350" transform="translate(-971 -883)">
    <g id="Group_349" data-name="Group 349" transform="translate(971 883)">
      <g id="Group_176" data-name="Group 176" clip-path="url(#clip-path)">
        <g id="Group_129" data-name="Group 129" transform="translate(-82.834 61.194)">
          <path id="Path_264" data-name="Path 264" d="M-141.254,72.882c-4.719-.768-4.667-23.478.054-24.045,57.358-6.883,207.388-22.679,209.868.078,3.068,28.146-138.5,21.219-120.229,37.22S64.069,87.186,62.919,96.755s-61.674,6.16-42.4,22.325,88.988,8.07,84.318,18.687-52.135,4.469-31.389,22.5,70.486,6.665,64.167,26.77-249.637-11.615-230.334-29.593,67.767-11.667,53.588-33.5-132.659-.588-126.289-23.935,68.74-9.882,56.382-20.035C-114.943,75.125-128.917,74.889-141.254,72.882Z" transform="translate(165.668 -37.065)" fill="#fff" opacity="0.2"/>
          <path id="Path_265" data-name="Path 265" d="M669.106,152.379s-90-9.744-90.5,1.624,56.5,9.744,46.5,21.112-60.5,9.744-50.5,24.36,125.5,19.488,119.5,3.248-42-32.48-42-32.48,53,9.744,47.5-1.624S669.106,152.379,669.106,152.379Z" transform="translate(-203.817 32.465)" fill="#fff" opacity="0.2"/>
          <path id="Path_266" data-name="Path 266" d="M503,97.344c-3.056-1.821-2.625-16.44.482-16.282,30.894,1.564,125.834,5.489,125.414-5.39-.5-12.992-142.5-24.36-150.5-12.992s8,40.6,8,40.6-34,4.872-25,14.616,146,21.112,139,4.872C594.9,110.018,528.082,112.282,503,97.344Z" transform="translate(-147.104 -23.995)" fill="#fff" opacity="0.2"/>
        </g>
        <g id="Group_131" data-name="Group 131" transform="translate(-20.02 184.641)">
          <g id="Group_130" data-name="Group 130">
            <path id="Path_267" data-name="Path 267" d="M382.425,369.522l-19.66,105.187-82.225-1.039-302.505-3.833L-40.04,333.258c3.41-3.053,5.5-14.161,8.58-19.813,2.02-3.719,4.425-5,6.31-9.37,1.675-3.881,2.77-9.809,4.225-14.535a70.374,70.374,0,0,1,4.1-10c3.62-7.617,7.64-18.432,11.915-20.186,11.31-4.612,23.135-9.858,32.445-31.213,2.93-6.723,5.535-14.892,8.575-21.063,3.32-6.74,7.07-10.9,10.54-16.808,9.67-16.484,16.7-45.716,25.905-64.814,2.685-5.57,5.69-10.361,8.81-11.5a3.814,3.814,0,0,1,2.65-.032c3.6,1.267,6.765,8.039,9.72,14.843a120.115,120.115,0,0,1,6.8,18.887c2.85,11.011,4.485,25.237,7.8,34.77,2.445,7.016,5.605,10.881,8.13,17.572,1.955,5.164,3.48,11.9,5.505,16.776a34.982,34.982,0,0,0,4.52,7.8c1.02,1.38,2.05,2.68,3.06,4.109,10.795,15.347,19.2,46.69,30.59,56.58a13.957,13.957,0,0,1,2.795,3.037c2.235,3.394,4.79,4.093,7.075,1.056,9.645-12.781,20.93-16.825,31.175-16.695,1.825.016,3.68.26,5.44-1.267,2.355-2.062,4.345-7.1,6.24-12.083,5.59-14.665,11.265-30.271,18.175-36.735,2.97-2.777,6.185-3.865,8.765-9.4,3.81-8.169,5.725-24.928,10.08-29.346,2.945-3,6.12.7,9.205.341,4.4-.5,8.245-9.094,12.145-15.737a24.7,24.7,0,0,1,5.075-6.512c2.585-2.079,5.22-2.111,7.51,2.03,5.86,10.6,12.775,20.755,18.31,33.081,2.135,4.775,3.955,10.946,6.125,15.542,4.175,8.851,9.375,11.3,13.62,19.8,5.73,11.482,9.12,32.772,14.935,43.832,5.325,10.117,12.06,10.394,17.25,21.242,3.945,8.25,6.545,21.664,9.955,32.139a146.446,146.446,0,0,0,8.875,20.722Q377.66,359.916,382.425,369.522Z" transform="translate(40.04 -113.693)" fill="#e8cddc"/>
            <path id="Path_268" data-name="Path 268" d="M639.21,351.527,619.55,456.713l-82.225-1.039c-30.835-39.983-61.32-79.755-61.32-79.755L513.63,318.04l-40.1,3.216,38.12-38.6-20.3-41.8,33.665,12.862-14.36-30.547,28.715,22.509,13.37-11.254-12.875-8.039,8.915-30.564-16.34,4.823,6.435-12.862-5.785-43.864c2.585-2.079,5.22-2.111,7.51,2.03,5.86,10.6,12.775,20.755,18.31,33.081,2.135,4.775,3.955,10.946,6.125,15.542,4.175,8.851,9.375,11.3,13.62,19.8,5.73,11.482,9.12,32.772,14.935,43.832,5.325,10.118,12.06,10.394,17.25,21.242,3.945,8.25,6.545,21.664,9.955,32.139a146.452,146.452,0,0,0,8.875,20.722Q634.445,341.921,639.21,351.527Z" transform="translate(-216.745 -95.698)" fill="#f38000" opacity="0.4" style="mix-blend-mode: screen;isolation: isolate"/>
            <path id="Path_269" data-name="Path 269" d="M698.775,351.524,679.115,456.71l-8.645-.114,19.64-105.073q-4.762-9.622-9.535-19.228a146.449,146.449,0,0,1-8.875-20.722c-3.41-10.475-6.01-23.889-9.955-32.139-5.19-10.848-11.925-11.124-17.25-21.242-5.815-11.059-9.205-32.35-14.935-43.832-4.245-8.494-9.445-10.946-13.62-19.8-2.17-4.6-3.99-10.767-6.125-15.542-4.96-11.043-11.03-20.349-16.455-29.784l-.7-5.327c2.585-2.079,5.22-2.111,7.51,2.03,5.86,10.6,12.775,20.755,18.31,33.081,2.135,4.775,3.955,10.946,6.125,15.542,4.175,8.851,9.375,11.3,13.62,19.8,5.73,11.482,9.12,32.772,14.935,43.832,5.325,10.118,12.06,10.394,17.25,21.242,3.945,8.25,6.545,21.664,9.955,32.139A146.449,146.449,0,0,0,689.24,332.3Q694.01,341.918,698.775,351.524Z" transform="translate(-276.31 -95.7)" fill="#e8cddc" opacity="0.4" style="mix-blend-mode: screen;isolation: isolate"/>
            <path id="Path_270" data-name="Path 270" d="M362.369,348.409c0,4.193-23.885-58.706-23.885-58.706L328.8,258.254l17.751,27.256,24.53,52.416Z" transform="translate(-144.381 -23.49)" fill="#e8cddc" opacity="0.4" style="mix-blend-mode: screen;isolation: isolate"/>
            <path id="Path_271" data-name="Path 271" d="M392.708,356.94l-17.752-56.609,23.885,31.449L382.7,283.558l-15.169-4.193-4.519-48.223,10.328,30.4,36.149,26.208L394,295.089s16.138,62.9,15.169,61.852S392.708,356.94,392.708,356.94Z" transform="translate(-161.487 -40.408)" fill="#e8cddc" opacity="0.4" style="mix-blend-mode: screen;isolation: isolate"/>
            <path id="Path_272" data-name="Path 272" d="M258.065,267.275c-1.355,0-40.085-13.171-40.085-13.171l-18.47,46.82-5.855-81.915L186,192.668l11.71,4.385L208.52,179.5l-8.1-19.017-6.035-46.528a3.814,3.814,0,0,1,2.65-.032c3.6,1.267,6.765,8.039,9.72,14.843a120.115,120.115,0,0,1,6.8,18.887c2.85,11.011,4.485,25.237,7.8,34.77,2.445,7.016,5.605,10.881,8.13,17.572,1.955,5.164,3.48,11.9,5.505,16.776a34.982,34.982,0,0,0,4.52,7.8l-11.625,9.062S259.415,267.275,258.065,267.275Z" transform="translate(-72.98 -109.693)" fill="#f38000" opacity="0.4" style="mix-blend-mode: screen;isolation: isolate"/>
            <path id="Path_273" data-name="Path 273" d="M247.89,224.561l-3.565,2.777a31.813,31.813,0,0,1-2.645-5.083c-2.025-4.872-3.545-11.612-5.505-16.776-2.525-6.691-5.685-10.556-8.125-17.572-3.32-9.533-4.96-23.759-7.81-34.77a119.118,119.118,0,0,0-6.8-18.887c-2.95-6.8-6.115-13.577-9.72-14.843a.766.766,0,0,0-.26-.065l-.7-5.392a3.815,3.815,0,0,1,2.65-.032c3.6,1.267,6.765,8.039,9.72,14.843a120.114,120.114,0,0,1,6.8,18.887c2.85,11.011,4.485,25.237,7.8,34.77,2.445,7.016,5.605,10.881,8.13,17.572,1.955,5.164,3.48,11.9,5.505,16.776A34.983,34.983,0,0,0,247.89,224.561Z" transform="translate(-81.36 -113.695)" fill="#e8cddc" opacity="0.4" style="mix-blend-mode: screen;isolation: isolate"/>
            <path id="Path_274" data-name="Path 274" d="M539.8,388.239l-61.32-79.755L516.1,250.6,491.74,303.932Z" transform="translate(-219.22 -28.264)" fill="#e8cddc" opacity="0.4" style="mix-blend-mode: screen;isolation: isolate"/>
            <path id="Path_275" data-name="Path 275" d="M201.31,178.545l7.845,56.673,17-34.916L265.72,226.81l-40.085-13.171-18.47,46.82Z" transform="translate(-80.635 -73.229)" fill="#e8cddc" opacity="0.4" style="mix-blend-mode: screen;isolation: isolate"/>
            <path id="Path_276" data-name="Path 276" d="M529.475,262.18l-20.295-41.8,33.665,12.862-14.36-30.547L557.2,225.2l13.37-11.254L557.7,205.908l8.915-30.564-4.02,25.33,14.167,14.075-19.333,22.736L541.59,219.621l5.833,17.864-27.833-7.037Z" transform="translate(-234.57 -75.226)" fill="#e8cddc" opacity="0.4" style="mix-blend-mode: screen;isolation: isolate"/>
          </g>
        </g>
        <g id="Group_132" data-name="Group 132" transform="translate(-61.292 361.956)">
          <path id="Path_277" data-name="Path 277" d="M315.013,488.31c-22.62,8.38-43.94,17.1-66.555,25.464-19.485,7.211-39.005,14.421-58.615,15.948-26.95,2.111-53.825-6.561-80.675-13.138A543.729,543.729,0,0,0,41.463,504.42a523.765,523.765,0,0,0-125.955.65c-10.52,1.315-21.135,2.939-31.515-2.111-1.785-.877-3.665-2.111-4.965-5.863-2.665-7.7-1.54-21.031-.1-31.311,7.25-51.546,18.375-104.033,34.26-133.379q11.933-22.021,23.865-44.075c15.105-27.9,30.8-56.45,48.34-63.612A24.827,24.827,0,0,1,.063,223.436c13.215,2.631,26.335,14.454,39.095,26.2l.63.585c7.07,6.5,14.14,13.008,21.175,19.862a375.227,375.227,0,0,1,30.03,32.334c9.43,11.514,18.82,24.571,28.915,28.761,5.36,2.225,10.775,1.884,16.2,1.072,7.735-1.153,15.485-3.232,23.13-.146,10.44,4.222,20.115,17.815,30.135,27.689q1.793,1.778,3.6,3.362c1.065.926,2.135,1.8,3.215,2.6a43.733,43.733,0,0,0,7.72,4.547c13.22,6.171,26.925,5.684,39.44,19.634,11.15,12.44,20.575,35.533,31.145,51.871,9.215,14.226,19.215,23.207,28.99,33.552Q309.288,481.514,315.013,488.31Z" transform="translate(122.584 -222.879)" fill="#a892dd"/>
          <path id="Path_278" data-name="Path 278" d="M425.935,361.253,441.445,371,387.03,421.78,417.1,374.927l-15.7-1.072,22.12-29.638L374.28,365.8l13.64-23.288-6.085-5.733,28.82-18.514s-33.6-11.011-34.58-11.368c-.545-.195,4.04-8.412,8.465-16,7.735-1.153,15.485-3.232,23.13-.146,10.44,4.222,20.115,17.815,30.135,27.689l-2.9,1.364,6.5,2c1.065.926,2.135,1.8,3.215,2.6a43.732,43.732,0,0,0,7.72,4.547l-6.885,8.851,12.51,4.141Z" transform="translate(-125.848 -181.532)" fill="#a892dd" opacity="0.2" style="mix-blend-mode: screen;isolation: isolate"/>
          <path id="Path_279" data-name="Path 279" d="M19.373,374.565l69.865,81.492L41.463,504.42a523.765,523.765,0,0,0-125.955.65c-10.52,1.315-21.135,2.939-31.515-2.111-1.785-.877-3.665-2.111-4.965-5.863-2.665-7.7-1.54-21.031-.1-31.311,7.25-51.546,18.375-104.033,34.26-133.379q11.933-22.021,23.865-44.075c15.105-27.9,30.8-56.45,48.34-63.612A24.827,24.827,0,0,1,.063,223.436l-.375,3.2,7.72,16.3-17.755-5.018L2.778,278.035l-30.1,2.5L-4.942,305.61l38.985-33.844-16.21,31.343,36.28-10.036-23.16,38.879,65.62,30.077Z" transform="translate(122.584 -222.879)" fill="#f38000" opacity="0.2" style="mix-blend-mode: screen;isolation: isolate"/>
          <path id="Path_280" data-name="Path 280" d="M89.6,223.222l1.145,14.161-17.5-1.624,11.5,33.292L56.5,272.3l5.715,8.023,30.1-2.5L79.75,241.443l17.2,1.283Z" transform="translate(33.042 -222.666)" fill="#a892dd" opacity="0.2" style="mix-blend-mode: screen;isolation: isolate"/>
          <path id="Path_281" data-name="Path 281" d="M161.578,290.042l65.62,30.076L150,332.656l69.865,81.492-81.2-76.09,28.167-31.4Z" transform="translate(-8.041 -180.97)" fill="#a892dd" opacity="0.2" style="mix-blend-mode: screen;isolation: isolate"/>
        </g>
        <g id="Group_175" data-name="Group 175" transform="translate(-53.938 135.623)">
          <g id="Group_171" data-name="Group 171" transform="translate(17.941 328.869)">
            <g id="Group_170" data-name="Group 170">
              <g id="Group_134" data-name="Group 134" transform="translate(0 40.43)">
                <path id="Path_285" data-name="Path 285" d="M350.338,321.684a35.413,35.413,0,0,0-10.977-8.331c-14.389-6.74-29.509,1.283-43.614,14.242C278,343.9,260.978,367.74,242.883,379.839c-10.166,6.8-20.806,10.069-30.009,25.01-8.315,13.5-14.875,35.608-22.525,52.238-.831-1.114-1.663-2.215-2.5-3.274-10.555-13.317-21.635-22.216-32.895-26.146-18.16-6.366-36.875-.341-54.445-16.565-5.17-4.775-10.19-11.449-15.475-14.648-13.615-8.234-27.6,7.162-41.41,3.833-16.635-4-31.755-34.754-48.355-40.032-10.425-3.313-23.21,5.375-34.83,22.233-.84,1.218-1.675,2.485-2.5,3.784-10.37,16.354-19.565,39.2-24.96,65.723C-83.277,531.862-55.87,623.548-39.33,626.016.808,632,48.2,665.509,88.337,671.489c2.885-4.541,5.728-9.333,8.6-14.171a100.684,100.684,0,0,0,6.148-12.9h244.8ZM180.321,473.723c-6.112,6.972-12.68,9.686-19.181,13.141,8.605-9.3,17.336-17.344,26.008-25.947.907-.9,1.807-1.829,2.707-2.759a82.562,82.562,0,0,1-6.285,11.374A42.916,42.916,0,0,1,180.321,473.723Z" transform="translate(71.993 -310.912)" fill="#6563d1"/>
                <path id="Path_286" data-name="Path 286" d="M244.667,502.831S101.334,592.692,107,597.023c3.225,2.464,91.206-9.8,166.424-20.826,51.41-7.535,97.141-103.819,121.913-250.327,1.5-8.856,3.059-13.9,4.663-13.59,11,2.166,19.667,45.472,21,51.968s-5.667,332.379-5.667,332.379S81,700.959,80,700.959s-42-86.614-42-86.614S206.333,438.952,244.667,502.831Z" transform="translate(16.997 -310.067)" fill="#6563d1" opacity="0.4" style="mix-blend-mode: multiply;isolation: isolate"/>
                <path id="Path_287" data-name="Path 287" d="M151.352,431.126,64.687,381.318l24.33,36.816L6.687,381.318l29.665-5.408L-6.963,363.8c11.62-16.857,24.4-25.545,34.83-22.233,16.6,5.278,31.72,36.037,48.355,40.032,13.815,3.329,27.795-12.066,41.41-3.833,5.285,3.2,10.305,9.874,15.475,14.648,17.57,16.224,36.285,10.2,54.445,16.565,11.26,3.93,22.34,12.83,32.9,26.146l-74.1-18.075Z" transform="translate(39.478 -292.221)" fill="#6563d1" opacity="0.2" style="mix-blend-mode: screen;isolation: isolate"/>
                <path id="Path_288" data-name="Path 288" d="M510.65,387.521l44.456-20.933s-53.959,35.6-53.959,38.732c0,3.069,57.834-13.9,60.324-14.632l-71.523,34.526,47.189,28.29c-18.664-9.906-67.453,5.392-104.5,20.219a42.912,42.912,0,0,0,3.248-4.19c10.882-15.9,18.648-47.388,29.3-64.684,9.2-14.941,19.843-18.205,30.009-25.01,18.1-12.1,35.122-35.939,52.865-52.244,14.1-12.96,29.225-20.982,43.614-14.242l-30.463,19.732,7.807,25.123C554.084,338.33,510.65,387.521,510.65,387.521Z" transform="translate(-180.321 -310.912)" fill="#4742ba" opacity="0.3" style="mix-blend-mode: screen;isolation: isolate"/>
              </g>
              <g id="Group_136" data-name="Group 136" transform="translate(4.853 158.927)">
                <g id="Group_135" data-name="Group 135">
                  <path id="Path_289" data-name="Path 289" d="M251.861,419.563c-.42,6.74-6.61,13.138-16.93,19.7a194.43,194.43,0,0,1-18.59,10.182c-4.935,2.42-10.285,4.888-15.97,7.438-6.13,2.761-12.65,5.6-19.475,8.558-15.85,6.886-33.335,14.389-51.325,22.915q-9.457,4.482-19.05,9.322-7.672,3.9-15.345,8.071c-7.385,4.028-14.74,8.25-21.985,12.716-8.515,5.229-16.88,10.767-24.975,16.646q-7.41,5.408-14.49,11.189C3.781,570.839-21,601-33.539,639c11.44-76.75-48.415,70.741-21.9-57.8C-47.4,542.208-26.9,509.419-.629,483.37q6.637-6.577,13.735-12.586a257.387,257.387,0,0,1,24.165-18.14c7.14-4.742,14.44-9.094,21.805-13.041q7.732-4.141,15.535-7.714c6.6-3,13.195-5.7,19.735-8.071,20.15-7.308,39.745-11.547,56.955-12.586a111.275,111.275,0,0,1,24.69.991,64.478,64.478,0,0,1,14.74,4.109c-3.815-21.664-14.4-19.082-20.4-29.053,1.76-.926,5.61-1.851,10.72-2.5a124.23,124.23,0,0,1,23.83-.585C227.946,385.817,253.436,394.278,251.861,419.563Z" transform="translate(62.288 -383.879)" fill="#b9bffd"/>
                </g>
                <path id="Path_290" data-name="Path 290" d="M75.735,553.151c-13.45,13.188-20.122-51.346-7.089-68.382q.409-.536.827-1.064c18-22.736,109.334-32.48,107-48.72s2-17.323,10.667-17.323,71.333,10.827,70.667-4.33-13.667-24.9-13.667-24.9,51.333-3.248,54,8.662-8.667,5.413-8.667,5.413,14,16.24,7.667,24.9-84,48.72-87.333,43.307-123.334,68.208-133,81.2A10.508,10.508,0,0,1,75.735,553.151Z" transform="translate(0.336 -381.291)" fill="#b9bffd" opacity="0.3" style="mix-blend-mode: screen;isolation: isolate"/>
              </g>
              <g id="Group_142" data-name="Group 142" transform="translate(307.825 56.178)">
                <path id="Path_291" data-name="Path 291" d="M651.94,322.452l-2.922-1.843A29.6,29.6,0,0,1,651.94,322.452Z" transform="translate(-596.338 -320.609)" fill="#ffd59c"/>
                <g id="Group_137" data-name="Group 137" transform="translate(11.495 5.112)">
                  <path id="Path_292" data-name="Path 292" d="M603.49,554.569H566.647l2.2-29.029L577.607,499l-7.8,14.071,3.252-42.922,5.876-18.154-5.084,7.812,1.954-25.656,5.316-12.117-4.824,5.548,4.66-61.21,3.239-42.612,9.143,109.281-6.519-11.008,7.475,22.46,3.744,44.786L591.2,476.182l7.872,25.567,1.257,15.047Z" transform="translate(-566.647 -323.757)" fill="#23207d"/>
                  <path id="Path_293" data-name="Path 293" d="M602.99,386.611l.5,128.722h-1Z" transform="translate(-584.569 -284.536)" fill="#1b1961" style="mix-blend-mode: multiply;isolation: isolate"/>
                  <path id="Path_294" data-name="Path 294" d="M614.642,516.8c-2.76,1.644-5.713-2.884-7.543-9.942-2.023-7.857-2.87-18.2-3.225-28.363s-.273-20.462-.7-30.583c-.943-21.971-4.25-42.034-6.464-63.029q-.984-9.52-1.449-18.509l3.239-42.612,9.143,109.281-6.519-11.008,7.475,22.46,3.744,44.787-6.833-13.094,7.872,25.567Z" transform="translate(-580.956 -323.757)" fill="#23207d" opacity="0.3" style="mix-blend-mode: screen;isolation: isolate"/>
                </g>
                <g id="Group_138" data-name="Group 138" transform="translate(38.263 0.771)">
                  <path id="Path_295" data-name="Path 295" d="M657.025,551.9H620.182l2.2-29.029,8.76-26.544-7.8,14.071,3.253-42.923,5.876-18.154-5.084,7.812,1.954-25.656,5.316-12.118L629.83,424.9l4.66-61.21,3.239-42.612,9.143,109.281-6.519-11.008,7.475,22.46,3.745,44.786-6.833-13.094,7.872,25.567,1.257,15.047Z" transform="translate(-620.182 -321.083)" fill="#23207d"/>
                  <path id="Path_296" data-name="Path 296" d="M656.526,383.938l.5,128.723h-1Z" transform="translate(-638.104 -281.862)" fill="#1b1961" style="mix-blend-mode: multiply;isolation: isolate"/>
                  <path id="Path_297" data-name="Path 297" d="M668.177,514.122c-2.76,1.642-5.713-2.884-7.543-9.942-2.023-7.857-2.87-18.2-3.225-28.363s-.273-20.462-.7-30.583c-.943-21.971-4.251-42.034-6.464-63.029q-.984-9.522-1.448-18.51l3.238-42.61,9.143,109.281-6.518-11.009,7.475,22.46,3.745,44.787-6.833-13.094,7.872,25.567Z" transform="translate(-634.491 -321.083)" fill="#23207d" opacity="0.3" style="mix-blend-mode: screen;isolation: isolate"/>
                </g>
                <g id="Group_139" data-name="Group 139" transform="translate(27.017 53.61)">
                  <path id="Path_298" data-name="Path 298" d="M636.664,608.452H597.691l2.674-41.761,7.99-20.646-7.589,14.3,2.866-44.933,6.052-19.659L604.1,508.079l2.082-32.556,4.051-8.372-3.667,2.392L610,415.611l3.955-61.991,11.176,125.439-5.3-7.594,5.924,14.614,5.188,58.092c-3.01-6.657-8.278-18.255-8.919-19.659l9.9,30.684,2.113,23.715Z" transform="translate(-597.691 -353.62)" fill="#8381db"/>
                  <path id="Path_299" data-name="Path 299" d="M646.351,578.913c-2.018,7.28-5.156,11.389-7.814,7.332-2.77-4.161-3.923-14.614-4.8-24.079q-2.329-24.964-4.676-49.979c-1.553-16.589-3.122-33.284-4.1-50.342-.88-15.394-1.361-31.307-2.642-46.234l3.955-61.991,11.176,125.439-5.3-7.594,5.924,14.614,5.188,58.092c-3.01-6.657-8.278-18.255-8.918-19.659l9.9,30.684Z" transform="translate(-610.004 -353.62)" fill="#9391e0"/>
                  <path id="Path_300" data-name="Path 300" d="M632.116,386.167,635.2,588.03l-1.6.19Z" transform="translate(-614.904 -333.311)" fill="#3931aa"/>
                </g>
                <g id="Group_140" data-name="Group 140" transform="translate(0 40.87)">
                  <path id="Path_301" data-name="Path 301" d="M582.63,600.607H543.657l2.674-41.761,7.99-20.648-7.589,14.3,2.866-44.934,6.052-19.659-5.588,12.326,2.081-32.556,4.051-8.373-3.667,2.392,3.443-53.93,3.955-61.991L571.1,471.214l-5.3-7.594,5.924,14.614,5.188,58.092c-3.01-6.658-8.279-18.255-8.919-19.658l9.9,30.684L580,571.066Z" transform="translate(-543.657 -345.775)" fill="#3b35ab"/>
                  <path id="Path_302" data-name="Path 302" d="M592.318,571.066c-2.018,7.282-5.156,11.391-7.813,7.334-2.77-4.161-3.923-14.614-4.8-24.079q-2.33-24.964-4.675-49.979c-1.554-16.591-3.123-33.284-4.1-50.342-.881-15.394-1.361-31.307-2.642-46.234l3.955-61.991,11.177,125.439-5.3-7.594,5.924,14.614,5.188,58.092c-3.01-6.658-8.279-18.255-8.919-19.658l9.9,30.684Z" transform="translate(-555.97 -345.775)" fill="#463ec9"/>
                  <path id="Path_303" data-name="Path 303" d="M578.083,378.321l3.08,201.864-1.6.191Z" transform="translate(-560.87 -325.466)" fill="#2b277d"/>
                </g>
                <g id="Group_141" data-name="Group 141" transform="translate(49.294 66.376)">
                  <path id="Path_304" data-name="Path 304" d="M679.089,592.293H642.246l2.2-29.029,8.76-26.544-7.8,14.071,3.253-42.922,5.876-18.154-5.084,7.812,1.954-25.656,5.316-12.118-4.824,5.548,4.66-61.21,3.239-42.611,9.143,109.281-6.519-11.008,7.475,22.46L673.637,527,666.8,513.906l7.872,25.567,1.257,15.047Z" transform="translate(-642.246 -361.481)" fill="#3b35ab"/>
                  <path id="Path_305" data-name="Path 305" d="M678.406,424.335l.683,128.722h-1.367Z" transform="translate(-659.984 -322.26)" fill="#2b277d"/>
                  <path id="Path_306" data-name="Path 306" d="M690.24,554.519c-2.76,1.642-5.713-2.884-7.543-9.942-2.023-7.857-2.87-18.2-3.226-28.363s-.273-20.462-.7-30.583c-.943-21.971-4.25-42.034-6.464-63.029q-.984-9.522-1.449-18.51l3.239-42.611,9.143,109.281-6.519-11.007,7.475,22.46L687.944,527l-6.833-13.093,7.872,25.567Z" transform="translate(-656.554 -361.48)" fill="#463ec9"/>
                </g>
              </g>
              <g id="Group_169" data-name="Group 169" transform="translate(73.129)">
                <g id="Group_150" data-name="Group 150" transform="translate(38.859 145.745)">
                  <g id="Group_144" data-name="Group 144" transform="translate(92.734)">
                    <path id="Path_307" data-name="Path 307" d="M356.475,406.656c0,.166,0,.339,0,.515H337.454c0-.175,0-.349,0-.515,0-12.584,2.318-23.418,5.644-28.217,1.183-1.731,2.492-2.678,3.868-2.678,4.258,0,7.863,9.083,9.074,21.617C356.323,400.3,356.475,403.423,356.475,406.656Z" transform="translate(-337.451 -375.761)" fill="#716fd9"/>
                    <path id="Path_308" data-name="Path 308" d="M361.682,397.378c-.707,1.184-1.617.741-2.324-.526a30.231,30.231,0,0,1-1.934-5.572,16.373,16.373,0,0,0-2.048-5.055c-1.8-2.184-4.062,1.236-5.644-2.327a16.561,16.561,0,0,1-.992-5.458c1.183-1.731,2.492-2.678,3.868-2.678C356.866,375.761,360.471,384.844,361.682,397.378Z" transform="translate(-343.095 -375.761)" fill="#8684d9"/>
                    <g id="Group_143" data-name="Group 143" transform="translate(2.273 7.549)">
                      <path id="Path_309" data-name="Path 309" d="M355.842,404.267,356,380.409l.159,23.858Z" transform="translate(-348.919 -380.409)" fill="#3931aa"/>
                      <path id="Path_310" data-name="Path 310" d="M360.271,381.466l-4.086,14.826-.151-1.106Z" transform="translate(-349.015 -379.75)" fill="#3931aa"/>
                      <path id="Path_311" data-name="Path 311" d="M346.541,385.588l4.855,11.956-.2.8Z" transform="translate(-344.268 -377.178)" fill="#3931aa"/>
                      <path id="Path_312" data-name="Path 312" d="M342,390.937l5.345-.719.269,1.159Z" transform="translate(-341.996 -374.288)" fill="#3931aa"/>
                      <path id="Path_313" data-name="Path 313" d="M365.4,392.334l-5.026-5.872.116-.958Z" transform="translate(-351.186 -377.23)" fill="#3931aa"/>
                    </g>
                  </g>
                  <g id="Group_149" data-name="Group 149" transform="translate(0 20.009)">
                    <g id="Group_146" data-name="Group 146" transform="translate(5.06)">
                      <path id="Path_314" data-name="Path 314" d="M176.483,411.437c0,.125,0,.257,0,.39H162.1c0-.133,0-.265,0-.39,0-9.513,1.752-17.7,4.266-21.33.894-1.309,1.884-2.025,2.924-2.025,3.219,0,5.944,6.866,6.859,16.341C176.367,406.633,176.483,408.993,176.483,411.437Z" transform="translate(-162.102 -388.082)" fill="#716fd9"/>
                      <path id="Path_315" data-name="Path 315" d="M180.418,404.423c-.534.895-1.222.56-1.757-.4a22.866,22.866,0,0,1-1.462-4.211,12.359,12.359,0,0,0-1.548-3.821c-1.364-1.652-3.07.934-4.266-1.76a12.52,12.52,0,0,1-.75-4.125c.894-1.309,1.884-2.025,2.924-2.025C176.778,388.082,179.5,394.948,180.418,404.423Z" transform="translate(-166.368 -388.082)" fill="#8684d9"/>
                      <g id="Group_145" data-name="Group 145" transform="translate(1.718 5.707)">
                        <path id="Path_316" data-name="Path 316" d="M176,409.63l.12-18.035.12,18.035Z" transform="translate(-170.771 -391.596)" fill="#3931aa"/>
                        <path id="Path_317" data-name="Path 317" d="M179.352,392.395,176.264,403.6l-.114-.836Z" transform="translate(-170.844 -391.097)" fill="#3931aa"/>
                        <path id="Path_318" data-name="Path 318" d="M168.973,395.511l3.67,9.038-.15.608Z" transform="translate(-167.255 -389.153)" fill="#3931aa"/>
                        <path id="Path_319" data-name="Path 319" d="M165.538,399.554l4.041-.543.2.876Z" transform="translate(-165.538 -386.969)" fill="#3931aa"/>
                        <path id="Path_320" data-name="Path 320" d="M183.23,400.61l-3.8-4.438.088-.724Z" transform="translate(-172.484 -389.193)" fill="#3931aa"/>
                      </g>
                    </g>
                    <g id="Group_148" data-name="Group 148" transform="translate(0 11.774)">
                      <path id="Path_321" data-name="Path 321" d="M163.287,413.693c0,.1,0,.2,0,.305h-11.3c0-.1,0-.208,0-.305,0-7.479,1.377-13.918,3.354-16.769a2.988,2.988,0,0,1,2.3-1.592c2.531,0,4.673,5.4,5.393,12.846C163.2,409.915,163.287,411.77,163.287,413.693Z" transform="translate(-151.982 -395.332)" fill="#706edb"/>
                      <path id="Path_322" data-name="Path 322" d="M166.38,408.178c-.42.7-.961.442-1.381-.312a18,18,0,0,1-1.149-3.311,9.715,9.715,0,0,0-1.217-3c-1.072-1.3-2.414.734-3.354-1.384a9.84,9.84,0,0,1-.59-3.243,2.988,2.988,0,0,1,2.3-1.592C163.518,395.332,165.661,400.73,166.38,408.178Z" transform="translate(-155.335 -395.332)" fill="#706edb"/>
                      <g id="Group_147" data-name="Group 147" transform="translate(1.35 4.486)">
                        <path id="Path_323" data-name="Path 323" d="M162.91,412.272,163,398.094l.094,14.178Z" transform="translate(-158.796 -398.094)" fill="#3931aa"/>
                        <path id="Path_324" data-name="Path 324" d="M165.543,398.722l-2.428,8.81-.09-.657Z" transform="translate(-158.854 -397.702)" fill="#3931aa"/>
                        <path id="Path_325" data-name="Path 325" d="M157.383,401.172l2.885,7.1-.118.478Z" transform="translate(-156.033 -396.174)" fill="#3931aa"/>
                        <path id="Path_326" data-name="Path 326" d="M154.682,404.351l3.177-.427.16.688Z" transform="translate(-154.682 -394.457)" fill="#3931aa"/>
                        <path id="Path_327" data-name="Path 327" d="M168.591,405.181l-2.986-3.489.069-.57Z" transform="translate(-160.144 -396.205)" fill="#3931aa"/>
                      </g>
                    </g>
                  </g>
                </g>
                <g id="Group_168" data-name="Group 168">
                  <g id="Group_155" data-name="Group 155" transform="translate(76.015 12.733)">
                    <path id="Path_340" data-name="Path 340" d="M234.41,417.408H214.295l1.2-15.849,4.783-14.492-4.26,7.682,1.776-23.434L221,361.4l-2.776,4.265,1.067-14.007,2.9-6.616-2.634,3.029,2.544-33.418,1.768-23.264,4.991,59.663-3.559-6.01,4.081,12.262,2.044,24.452-3.731-7.149L232,388.57l.686,8.215Z" transform="translate(-214.295 -291.394)" fill="#f38000"/>
                    <path id="Path_341" data-name="Path 341" d="M234.16,325.71l.25,70.277h-.5Z" transform="translate(-224.102 -269.981)" fill="#36358c"/>
                    <path id="Path_342" data-name="Path 342" d="M240.5,396.785c-1.507.9-3.119-1.575-4.118-5.427a77.282,77.282,0,0,1-1.761-15.485c-.194-5.551-.149-11.173-.38-16.7-.514-11.995-2.32-22.949-3.529-34.411q-.537-5.2-.791-10.106l1.768-23.264,4.992,59.662-3.559-6.009,4.081,12.261,2.045,24.453-3.73-7.149,4.3,13.958Z" transform="translate(-222.106 -291.394)" fill="#4d4cb0" opacity="0.3" style="mix-blend-mode: screen;isolation: isolate"/>
                  </g>
                  <g id="Group_272" data-name="Group 272" transform="translate(-9.985 5.733)">
                    <path id="Path_340-2" data-name="Path 340" d="M234.41,417.408H214.295l1.2-15.849,4.783-14.492-4.26,7.682,1.776-23.434L221,361.4l-2.776,4.265,1.067-14.007,2.9-6.616-2.634,3.029,2.544-33.418,1.768-23.264,4.991,59.663-3.559-6.01,4.081,12.262,2.044,24.452-3.731-7.149L232,388.57l.686,8.215Z" transform="translate(-214.295 -291.394)" fill="#f38000"/>
                    <path id="Path_341-2" data-name="Path 341" d="M234.16,325.71l.25,70.277h-.5Z" transform="translate(-224.102 -269.981)" fill="#36358c"/>
                    <path id="Path_342-2" data-name="Path 342" d="M240.5,396.785c-1.507.9-3.119-1.575-4.118-5.427a77.282,77.282,0,0,1-1.761-15.485c-.194-5.551-.149-11.173-.38-16.7-.514-11.995-2.32-22.949-3.529-34.411q-.537-5.2-.791-10.106l1.768-23.264,4.992,59.662-3.559-6.009,4.081,12.261,2.045,24.453-3.73-7.149,4.3,13.958Z" transform="translate(-222.106 -291.394)" fill="#4d4cb0" opacity="0.3" style="mix-blend-mode: screen;isolation: isolate"/>
                  </g>
                  <g id="Group_269" data-name="Group 269" transform="translate(38.015 10.733)">
                    <path id="Path_340-3" data-name="Path 340" d="M234.41,417.408H214.295l1.2-15.849,4.783-14.492-4.26,7.682,1.776-23.434L221,361.4l-2.776,4.265,1.067-14.007,2.9-6.616-2.634,3.029,2.544-33.418,1.768-23.264,4.991,59.663-3.559-6.01,4.081,12.262,2.044,24.452-3.731-7.149L232,388.57l.686,8.215Z" transform="translate(-214.295 -291.394)" fill="#f38000"/>
                    <path id="Path_341-3" data-name="Path 341" d="M234.16,325.71l.25,70.277h-.5Z" transform="translate(-224.102 -269.981)" fill="#36358c"/>
                    <path id="Path_342-3" data-name="Path 342" d="M240.5,396.785c-1.507.9-3.119-1.575-4.118-5.427a77.282,77.282,0,0,1-1.761-15.485c-.194-5.551-.149-11.173-.38-16.7-.514-11.995-2.32-22.949-3.529-34.411q-.537-5.2-.791-10.106l1.768-23.264,4.992,59.662-3.559-6.009,4.081,12.261,2.045,24.453-3.73-7.149,4.3,13.958Z" transform="translate(-222.106 -291.394)" fill="#4d4cb0" opacity="0.3" style="mix-blend-mode: screen;isolation: isolate"/>
                  </g>
                  <g id="Group_156" data-name="Group 156" transform="translate(103.015 29.101)">
                    <path id="Path_343" data-name="Path 343" d="M288.41,424.408H268.295l1.2-15.849,4.783-14.492-4.26,7.682,1.776-23.434L275,368.4l-2.776,4.265,1.067-14.007,2.9-6.616-2.634,3.029,2.544-33.418,1.768-23.264,4.991,59.663-3.559-6.01,4.081,12.262,2.044,24.452-3.731-7.149L286,395.57l.686,8.215Z" transform="translate(-268.295 -298.394)" fill="#4d4cb0"/>
                    <path id="Path_345" data-name="Path 345" d="M294.5,403.785c-1.507.9-3.119-1.575-4.118-5.427a77.281,77.281,0,0,1-1.761-15.485c-.194-5.551-.149-11.173-.38-16.7-.514-11.995-2.321-22.949-3.529-34.411q-.537-5.2-.791-10.106l1.768-23.264,4.991,59.662-3.559-6.009,4.081,12.261,2.044,24.453-3.731-7.149,4.3,13.958Z" transform="translate(-276.106 -298.394)" fill="#4d4cb0" opacity="0.3" style="mix-blend-mode: screen;isolation: isolate"/>
                  </g>
                  <g id="Group_270" data-name="Group 270" transform="translate(55.015 2.101)">
                    <path id="Path_343-2" data-name="Path 343" d="M288.41,424.408H268.295l1.2-15.849,4.783-14.492-4.26,7.682,1.776-23.434L275,368.4l-2.776,4.265,1.067-14.007,2.9-6.616-2.634,3.029,2.544-33.418,1.768-23.264,4.991,59.663-3.559-6.01,4.081,12.262,2.044,24.452-3.731-7.149L286,395.57l.686,8.215Z" transform="translate(-268.295 -298.394)" fill="#4d4cb0"/>
                    <path id="Path_345-2" data-name="Path 345" d="M294.5,403.785c-1.507.9-3.119-1.575-4.118-5.427a77.281,77.281,0,0,1-1.761-15.485c-.194-5.551-.149-11.173-.38-16.7-.514-11.995-2.321-22.949-3.529-34.411q-.537-5.2-.791-10.106l1.768-23.264,4.991,59.662-3.559-6.009,4.081,12.261,2.044,24.453-3.731-7.149,4.3,13.958Z" transform="translate(-276.106 -298.394)" fill="#4d4cb0" opacity="0.3" style="mix-blend-mode: screen;isolation: isolate"/>
                  </g>
                  <g id="Group_271" data-name="Group 271" transform="translate(8.015 0.101)">
                    <path id="Path_343-3" data-name="Path 343" d="M288.41,424.408H268.295l1.2-15.849,4.783-14.492-4.26,7.682,1.776-23.434L275,368.4l-2.776,4.265,1.067-14.007,2.9-6.616-2.634,3.029,2.544-33.418,1.768-23.264,4.991,59.663-3.559-6.01,4.081,12.262,2.044,24.452-3.731-7.149L286,395.57l.686,8.215Z" transform="translate(-268.295 -298.394)" fill="#4d4cb0"/>
                    <path id="Path_345-3" data-name="Path 345" d="M294.5,403.785c-1.507.9-3.119-1.575-4.118-5.427a77.281,77.281,0,0,1-1.761-15.485c-.194-5.551-.149-11.173-.38-16.7-.514-11.995-2.321-22.949-3.529-34.411q-.537-5.2-.791-10.106l1.768-23.264,4.991,59.662-3.559-6.009,4.081,12.261,2.044,24.453-3.731-7.149,4.3,13.958Z" transform="translate(-276.106 -298.394)" fill="#4d4cb0" opacity="0.3" style="mix-blend-mode: screen;isolation: isolate"/>
                  </g>
                  <g id="Group_158" data-name="Group 158" transform="translate(120.551 46.439)">
                    <path id="Path_349" data-name="Path 349" d="M330.618,406.222c-1.125,10.556-7.25,20.706-7.25,20.706s-7.875-7.714-8-27.2c-.025-3.654.225-8.818.64-14.778l1.86,5.44-1.585-9.241c.565-7.308,1.325-15.525,2.13-23.532l1.955,4.758-1.51-9.094c.385-3.735,1-9.4,1.64-15.266,1.25-11.352,2.6-23.4,2.6-23.4s4.3,45.472,5.98,64.2l-2.46,12.391,2.635-10.377c.615,6.983,1.09,13.268,1.315,17.961A57.733,57.733,0,0,1,330.618,406.222Z" transform="translate(-315.367 -314.612)" fill="#706edb"/>
                    <path id="Path_350" data-name="Path 350" d="M335.7,398.784c-.915.893-2.025.114-2.865-1.575-2.03-4.06-3-11.969-3.475-19.569-.48-7.584-.615-15.509-1.57-22.622-.54-4.011-1.33-7.665-1.78-11.807-.18-1.673-.3-3.41-.38-5.2,1.25-11.352,2.6-23.4,2.6-23.4s4.3,45.472,5.98,64.2L331.75,391.2l2.635-10.377C335,387.806,335.475,394.091,335.7,398.784Z" transform="translate(-320.498 -314.612)" fill="#706edb" opacity="0.3" style="mix-blend-mode: screen;isolation: isolate"/>
                    <path id="Path_351" data-name="Path 351" d="M330.339,337.775l.375,82.418c0,.672-.162,1.226-.37,1.236s-.377-.526-.38-1.2v-.036Z" transform="translate(-322.665 -300.158)" fill="#3931aa"/>
                  </g>
                  <g id="Group_159" data-name="Group 159" transform="translate(103.993 45.249)">
                    <path id="Path_354" data-name="Path 354" d="M275.818,327.367l1.393,91.29-.724.086Z" transform="translate(-268.034 -303.463)" fill="#3931aa"/>
                  </g>
                  <g id="Group_160" data-name="Group 160" transform="translate(15.59 -5.626)">
                    <path id="Path_355" data-name="Path 355" d="M174.723,429.07H153.445l1.46-22.8L159.267,395l-4.144,7.808,1.565-24.53,3.3-10.733-3.051,6.728,1.137-17.773,2.212-4.572-2,1.306,1.88-29.445,2.159-33.844,6.1,68.484-2.893-4.144,3.234,7.979,2.832,31.715c-1.643-3.635-4.52-9.966-4.869-10.733l5.4,16.753,1.154,12.946Z" transform="translate(-153.445 -289.942)" fill="#8381db"/>
                    <path id="Path_356" data-name="Path 356" d="M180.012,412.942c-1.1,3.976-2.815,6.218-4.266,4-1.512-2.27-2.142-7.979-2.623-13.146q-1.272-13.627-2.552-27.286c-.848-9.057-1.7-18.171-2.238-27.485-.48-8.4-.743-17.093-1.442-25.242l2.159-33.844,6.1,68.484-2.893-4.144,3.234,7.979,2.832,31.715c-1.644-3.635-4.52-9.966-4.869-10.733l5.4,16.753Z" transform="translate(-160.168 -289.942)" fill="#9391e0"/>
                    <g id="Group_267" data-name="Group 267" transform="translate(73.653 61.875)">
                      <path id="Path_354-2" data-name="Path 354" d="M275.818,327.367l1.393,91.29-.724.086Z" transform="translate(-268.034 -303.463)" fill="#3931aa"/>
                    </g>
                    <g id="Group_268" data-name="Group 268" transform="translate(51.203 57.875)">
                      <path id="Path_354-3" data-name="Path 354" d="M275.818,327.367l1.393,91.29-.724.086Z" transform="translate(-268.034 -303.463)" fill="#3931aa"/>
                    </g>
                  </g>
                  <g id="Group_162" data-name="Group 162" transform="translate(65.503 34.172)">
                    <path id="Path_361" data-name="Path 361" d="M225.385,427.531H205.27l1.2-15.849,4.783-14.492-4.26,7.682,1.776-23.434,3.208-9.911-2.776,4.265,1.067-14.007,2.9-6.616-2.634,3.029,2.544-33.418,1.768-23.264,4.991,59.663-3.559-6.01,4.081,12.262,2.044,24.452-3.731-7.149,4.3,13.958.686,8.215Z" transform="translate(-205.27 -301.517)" fill="#8381db"/>
                    <path id="Path_362" data-name="Path 362" d="M225.012,335.833l.373,70.277h-.746Z" transform="translate(-214.954 -280.104)" fill="#3931aa"/>
                    <path id="Path_363" data-name="Path 363" d="M231.473,406.908c-1.507.9-3.118-1.575-4.118-5.429a77.269,77.269,0,0,1-1.761-15.485c-.194-5.549-.149-11.171-.38-16.7-.515-11.995-2.32-22.949-3.529-34.411q-.537-5.2-.791-10.106l1.768-23.264,4.992,59.663-3.559-6.01,4.081,12.263,2.045,24.451-3.73-7.149,4.3,13.958Z" transform="translate(-213.082 -301.517)" fill="#9290df"/>
                  </g>
                  <g id="Group_165" data-name="Group 165" transform="translate(89.074 53.538)">
                    <path id="Path_370" data-name="Path 370" d="M246.247,425.5H228.413l.923-11.82,1.767-3.169-1.622,1.263,1.121-14.326,3.58-6.916-3.25,2.634,1.589-20.321,2.538-5.161-2.3,2.056,1.075-13.747.936-2.42.62-1.585-.6.685-.765.857,1.6-20.514,1.523-19.572,3.553,43.769-1.688-2.013,2,5.91,1.18,14.5-2.308-4.347,2.617,8.18,1.582,19.486-4.859-10.193,5.294,15.568L245.8,420.08Z" transform="translate(-228.413 -313.442)" fill="#8381db"/>
                    <path id="Path_371" data-name="Path 371" d="M252.148,420.08a4.176,4.176,0,0,1-.982,1.478c-1.76,1.52-3.632-2.249-4.562-7.324a115.022,115.022,0,0,1-1.265-17.067,145.606,145.606,0,0,0-1.049-17.3c-.679-4.518-1.813-8.222-2.465-12.783a87.877,87.877,0,0,1-.712-13.513c0-.3.007-.6.02-.9.079-4.991.4-10.065.646-14.947.079-1.606.145-3.168.191-4.711l1.523-19.571,3.553,43.768-1.688-2.012,2,5.91,1.18,14.5-2.307-4.347,2.617,8.18,1.582,19.485-4.858-10.192,5.293,15.568Z" transform="translate(-234.757 -313.442)" fill="#9391e0"/>
                    <path id="Path_372" data-name="Path 372" d="M245.919,329.7l.33,85.653h-.659Z" transform="translate(-237.001 -303.297)" fill="#3931aa"/>
                  </g>
                  <g id="Group_166" data-name="Group 166" transform="translate(46.667 36.076)">
                    <path id="Path_373" data-name="Path 373" d="M196.849,404.767c-1.125,10.556-7.25,20.706-7.25,20.706s-7.875-7.714-8-27.2c-.025-3.654.225-8.818.64-14.778l1.86,5.44-1.585-9.241c.565-7.308,1.325-15.525,2.13-23.532l1.955,4.758-1.51-9.094c.385-3.735,1-9.4,1.64-15.266,1.25-11.352,2.6-23.4,2.6-23.4s4.3,45.472,5.98,64.2l-2.46,12.391,2.635-10.377c.615,6.983,1.09,13.268,1.315,17.961A57.731,57.731,0,0,1,196.849,404.767Z" transform="translate(-181.598 -313.157)" fill="#706edb"/>
                    <path id="Path_374" data-name="Path 374" d="M201.931,397.329c-.915.893-2.025.114-2.865-1.575-2.03-4.06-2.995-11.969-3.475-19.569-.48-7.584-.615-15.509-1.57-22.622-.54-4.011-1.33-7.665-1.78-11.806-.18-1.673-.3-3.41-.38-5.2,1.25-11.352,2.6-23.4,2.6-23.4s4.3,45.472,5.98,64.2l-2.46,12.391,2.635-10.377C201.231,386.351,201.706,392.635,201.931,397.329Z" transform="translate(-186.729 -313.157)" fill="#706edb" opacity="0.3" style="mix-blend-mode: screen;isolation: isolate"/>
                    <path id="Path_375" data-name="Path 375" d="M196.571,336.32l.375,82.418c0,.674-.162,1.226-.369,1.237s-.378-.528-.381-1.2v-.037Z" transform="translate(-188.897 -298.703)" fill="#3931aa"/>
                  </g>
                  <g id="Group_167" data-name="Group 167" transform="translate(0 31.624)">
                    <path id="Path_376" data-name="Path 376" d="M89.516,397.1c-1.125,10.556-7.25,20.706-7.25,20.706s-7.875-7.714-8-27.2c-.025-3.654.225-8.818.64-14.778l1.86,5.44-1.585-9.241c.565-7.308,1.325-15.525,2.13-23.532l1.955,4.758-1.51-9.094c.385-3.735,1-9.4,1.64-15.266,1.25-11.352,2.6-23.4,2.6-23.4s4.3,45.472,5.98,64.2l-2.46,12.391L88.151,371.7c.615,6.983,1.09,13.268,1.315,17.961A57.733,57.733,0,0,1,89.516,397.1Z" transform="translate(-74.265 -305.49)" fill="#434299"/>
                    <path id="Path_377" data-name="Path 377" d="M94.6,389.662c-.915.893-2.025.114-2.865-1.575-2.03-4.06-3-11.969-3.475-19.569-.48-7.584-.615-15.509-1.57-22.622-.54-4.011-1.33-7.665-1.78-11.806-.18-1.673-.305-3.41-.38-5.2,1.25-11.352,2.6-23.4,2.6-23.4s4.3,45.472,5.98,64.2l-2.46,12.391L93.283,371.7C93.9,378.684,94.373,384.969,94.6,389.662Z" transform="translate(-79.396 -305.49)" fill="#5554c2"/>
                    <path id="Path_378" data-name="Path 378" d="M89.238,328.654l.375,82.418c0,.672-.162,1.226-.369,1.236s-.378-.528-.381-1.2v-.036Z" transform="translate(-81.564 -291.036)" fill="#393882"/>
                  </g>
                  <g id="Group_154" data-name="Group 154" transform="translate(27.003 30.992)">
                    <path id="Path_337" data-name="Path 337" d="M186.385,420.031H166.27l1.2-15.849,4.783-14.492-4.26,7.682,1.776-23.434,3.208-9.911-2.776,4.265,1.067-14.007,2.9-6.616-2.634,3.029,2.544-33.418,1.768-23.264,4.991,59.663-3.559-6.01,4.081,12.262,2.044,24.452-3.731-7.149,4.3,13.958.686,8.215Z" transform="translate(-166.27 -294.017)" fill="#4d4cb0"/>
                    <path id="Path_338" data-name="Path 338" d="M186.135,328.333l.25,70.277h-.5Z" transform="translate(-176.077 -272.604)" fill="#36358c"/>
                    <path id="Path_339" data-name="Path 339" d="M192.473,399.408c-1.507.9-3.118-1.575-4.118-5.429a77.269,77.269,0,0,1-1.761-15.485c-.194-5.549-.149-11.171-.38-16.7-.515-11.995-2.32-22.949-3.529-34.411q-.537-5.2-.791-10.106l1.768-23.264,4.992,59.663-3.559-6.01,4.081,12.263,2.045,24.451-3.73-7.149,4.3,13.958Z" transform="translate(-174.082 -294.017)" fill="#4d4cb0" opacity="0.3" style="mix-blend-mode: screen;isolation: isolate"/>
                  </g>
                </g>
              </g>
              <g id="Group_266" data-name="Group 266" transform="translate(90.122 26.249)">
                <path id="Path_354-4" data-name="Path 354" d="M275.818,327.367l1.393,91.29-.724.086Z" transform="translate(-268.034 -303.463)" fill="#3931aa"/>
              </g>
            </g>
          </g>
          <g id="Group_174" data-name="Group 174">
            <g id="Group_172" data-name="Group 172">
              <path id="Path_379" data-name="Path 379" d="M5.042,790.909H-107.876l6.743-88.969,26.847-81.351L-98.2,663.713l9.968-131.549,18.01-55.639L-85.8,500.468l5.989-78.63L-63.521,384.7l-14.785,17,14.282-187.6,9.926-130.6,28.02,334.925L-46.056,384.7l22.91,68.835L-11.669,590.8l-20.942-40.13,24.125,78.357,3.853,46.117Z" transform="translate(107.876 -83.511)" fill="#2f289c"/>
              <path id="Path_380" data-name="Path 380" d="M2.948,276.148l2.094,394.51H.854Z" transform="translate(53.511 36.694)" fill="#1f1975"/>
              <path id="Path_381" data-name="Path 381" d="M39.219,675.14c-8.461,5.033-17.508-8.843-23.12-30.473-6.2-24.079-8.8-55.775-9.885-86.928s-.838-62.714-2.136-93.729C1.189,396.671-8.947,335.182-15.732,270.836q-3.016-29.181-4.44-56.728l9.927-130.6,28.02,334.924L-2.2,384.7l22.91,68.835L32.183,590.8,11.241,550.665l24.125,78.358Z" transform="translate(64.024 -83.511)" fill="#2f289c" opacity="0.5" style="mix-blend-mode: multiply;isolation: isolate"/>
            </g>
            <g id="Group_173" data-name="Group 173" transform="translate(387.863 26.795)">
              <path id="Path_382" data-name="Path 382" d="M760.916,659.011c-6.865,64.411-44.239,126.347-44.239,126.347s-48.053-47.072-48.816-165.986c-.152-22.3,1.373-53.81,3.906-90.177l11.349,33.2-9.671-56.385c3.447-44.592,8.085-94.736,13-143.589l11.929,29.034-9.214-55.492c2.349-22.793,6.1-57.378,10.007-93.151,7.628-69.268,15.866-142.8,15.866-142.8s26.238,277.468,36.49,391.727l-15.011,75.609,16.079-63.321c3.752,42.611,6.651,80.961,8.024,109.6C761.648,634.633,761.831,650.389,760.916,659.011Z" transform="translate(-667.85 -100.011)" fill="#3931aa"/>
              <path id="Path_383" data-name="Path 383" d="M791.924,613.625c-5.583,5.45-12.356.693-17.482-9.612-12.387-24.774-18.276-73.034-21.2-119.411-2.929-46.278-3.753-94.637-9.58-138.04-3.295-24.477-8.116-46.774-10.861-72.044-1.1-10.207-1.861-20.81-2.319-31.71,7.628-69.268,15.866-142.8,15.866-142.8s26.238,277.468,36.49,391.727l-15.011,75.609L783.9,504.025C787.652,546.635,790.551,584.986,791.924,613.625Z" transform="translate(-699.164 -100.011)" fill="#3931aa" opacity="0.5" style="mix-blend-mode: multiply;isolation: isolate"/>
              <path id="Path_384" data-name="Path 384" d="M759.214,241.353,761.5,744.265c.018,4.1-.99,7.48-2.254,7.542s-2.3-3.217-2.322-7.323v-.219Z" transform="translate(-712.388 -11.814)" fill="#201973"/>
            </g>
          </g>
        </g>
      </g>
    </g>
    <path id="Path_1021" data-name="Path 1021" d="M629.351,121.515a14.16,14.16,0,0,0-3.535-3.35,9.29,9.29,0,0,0-4.824-1.634,7.278,7.278,0,0,0-4.969,1.877,13.683,13.683,0,0,0-3.043,4.139l1.886.005a10.762,10.762,0,0,0-1.42-2.077,8.188,8.188,0,0,0-1.932-1.664,5.863,5.863,0,0,0-2.54-.854,5.114,5.114,0,0,0-2.611.494,9.606,9.606,0,0,0-3.6,3.191,19.952,19.952,0,0,0-2.21,4.03,38.368,38.368,0,0,1,2.974-3.37,9.71,9.71,0,0,1,3.441-2.351,3.732,3.732,0,0,1,3.482.516,8.779,8.779,0,0,1,2.53,3.009l.978,1.855.908-1.85a12.2,12.2,0,0,1,2.507-3.577,5.722,5.722,0,0,1,3.657-1.708,9.014,9.014,0,0,1,4.282.892A20.324,20.324,0,0,1,629.351,121.515Z" transform="translate(379 878)" fill="#f38000"/>
    <path id="Path_1022" data-name="Path 1022" d="M629.351,121.515a14.16,14.16,0,0,0-3.535-3.35,9.29,9.29,0,0,0-4.824-1.634,7.278,7.278,0,0,0-4.969,1.877,13.683,13.683,0,0,0-3.043,4.139l1.886.005a10.762,10.762,0,0,0-1.42-2.077,8.188,8.188,0,0,0-1.932-1.664,5.863,5.863,0,0,0-2.54-.854,5.114,5.114,0,0,0-2.611.494,9.606,9.606,0,0,0-3.6,3.191,19.952,19.952,0,0,0-2.21,4.03,38.368,38.368,0,0,1,2.974-3.37,9.71,9.71,0,0,1,3.441-2.351,3.732,3.732,0,0,1,3.482.516,8.779,8.779,0,0,1,2.53,3.009l.978,1.855.908-1.85a12.2,12.2,0,0,1,2.507-3.577,5.722,5.722,0,0,1,3.657-1.708,9.014,9.014,0,0,1,4.282.892A20.324,20.324,0,0,1,629.351,121.515Z" transform="translate(518 932)" fill="#f38000"/>
    <path id="Path_1023" data-name="Path 1023" d="M629.351,121.515a14.16,14.16,0,0,0-3.535-3.35,9.29,9.29,0,0,0-4.824-1.634,7.278,7.278,0,0,0-4.969,1.877,13.683,13.683,0,0,0-3.043,4.139l1.886.005a10.762,10.762,0,0,0-1.42-2.077,8.188,8.188,0,0,0-1.932-1.664,5.863,5.863,0,0,0-2.54-.854,5.114,5.114,0,0,0-2.611.494,9.606,9.606,0,0,0-3.6,3.191,19.952,19.952,0,0,0-2.21,4.03,38.368,38.368,0,0,1,2.974-3.37,9.71,9.71,0,0,1,3.441-2.351,3.732,3.732,0,0,1,3.482.516,8.779,8.779,0,0,1,2.53,3.009l.978,1.855.908-1.85a12.2,12.2,0,0,1,2.507-3.577,5.722,5.722,0,0,1,3.657-1.708,9.014,9.014,0,0,1,4.282.892A20.324,20.324,0,0,1,629.351,121.515Z" transform="translate(558 900)" fill="#f38000"/>
    <path id="Path_1024" data-name="Path 1024" d="M649.948,126.681a26.669,26.669,0,0,0-6.063-6.818,14.368,14.368,0,0,0-8.274-3.326,11.436,11.436,0,0,0-8.523,3.82,28.113,28.113,0,0,0-5.219,8.424l3.235.01a22.456,22.456,0,0,0-2.436-4.227,15.056,15.056,0,0,0-3.314-3.387A9.042,9.042,0,0,0,615,119.439a7.6,7.6,0,0,0-4.478,1.005,17.8,17.8,0,0,0-6.178,6.495,43.4,43.4,0,0,0-3.791,8.2,75.605,75.605,0,0,1,5.1-6.859,16.853,16.853,0,0,1,5.9-4.785,5.59,5.59,0,0,1,5.972,1.05,17.472,17.472,0,0,1,4.339,6.124l1.677,3.775,1.557-3.765a25.3,25.3,0,0,1,4.3-7.28,10.7,10.7,0,0,1,2.883-2.424,9.118,9.118,0,0,1,3.389-1.052,13.426,13.426,0,0,1,7.344,1.815A34.281,34.281,0,0,1,649.948,126.681Z" transform="translate(615.403 997)" fill="#f38000"/>
  </g>
</svg>
