<svg xmlns="http://www.w3.org/2000/svg" width="20.045" height="29.815" viewBox="0 0 20.045 29.815">
  <g id="bookmark" transform="translate(-62.948 0)">
    <g id="Group_232" data-name="Group 232" transform="translate(62.948 0)">
      <g id="Group_231" data-name="Group 231" transform="translate(0 0)">
        <path id="Path_988" data-name="Path 988" d="M210.5,33.5h-2.08v-2.08a.621.621,0,0,0-1.242,0V33.5H205.1a.621.621,0,0,0,0,1.242h2.08v2.08a.621.621,0,0,0,1.242,0v-2.08h2.08a.621.621,0,0,0,0-1.242Z" transform="translate(-193.492 -28.411)"/>
        <path id="Path_989" data-name="Path 989" d="M77.258,0A5.715,5.715,0,0,0,71.8,4.011H65.348a2.4,2.4,0,0,0-1.661.67l-.04.037a2.4,2.4,0,0,0-.7,1.7v21.3a2.309,2.309,0,0,0,.478,1.459,1.661,1.661,0,0,0,1.931.509A3.014,3.014,0,0,0,66.775,28.4l3.641-5.8,3.632,5.811a3.013,3.013,0,0,0,1.419,1.288,1.661,1.661,0,0,0,1.934-.518,2.309,2.309,0,0,0,.478-1.459V11.386A5.708,5.708,0,0,0,77.258,0Zm-.795,28.383a.447.447,0,0,1-.22.155.472.472,0,0,1-.31-.025,1.819,1.819,0,0,1-.8-.782l-4.184-6.624a.621.621,0,0,0-1.065,0l-4.138,6.63a1.819,1.819,0,0,1-.8.782.472.472,0,0,1-.31.025.444.444,0,0,1-.22-.155,1.07,1.07,0,0,1-.2-.674V6.426a1.149,1.149,0,0,1,.338-.813l.025-.025a1.148,1.148,0,0,1,.779-.32h6.208q-.015.217-.016.438a5.711,5.711,0,0,0,5.081,5.674l.031,16.33A1.071,1.071,0,0,1,76.463,28.384ZM80.407,8.854a4.454,4.454,0,1,1,1.306-3.149A4.454,4.454,0,0,1,80.407,8.854Z" transform="translate(-62.948 0)"/>
      </g>
    </g>
  </g>
</svg>
