<svg xmlns="http://www.w3.org/2000/svg" width="22.778" height="22.778" viewBox="0 0 22.778 22.778">
  <g id="Group_351" data-name="Group 351" transform="translate(-102.534 -778.5)">
    <path id="Path_6" data-name="Path 6" d="M10.174.506A.506.506,0,0,0,9.668,0H.506A.506.506,0,0,0,0,.506V9.668a.506.506,0,0,0,.506.506H9.668a.506.506,0,0,0,.506-.506ZM9.162,9.162H1.012V1.012h8.15Zm0,0" transform="translate(102.534 778.5)"/>
    <path id="Path_7" data-name="Path 7" d="M321.424.506A.506.506,0,0,0,320.918,0h-9.162a.506.506,0,0,0-.506.506V9.668a.506.506,0,0,0,.506.506h9.162a.506.506,0,0,0,.506-.506Zm-1.012,8.656h-8.15V1.012h8.15Zm0,0" transform="translate(-196.112 778.5)"/>
    <path id="Path_8" data-name="Path 8" d="M10.174,311.756a.506.506,0,0,0-.506-.506H.506a.506.506,0,0,0-.506.506v9.162a.506.506,0,0,0,.506.506H9.668a.506.506,0,0,0,.506-.506Zm-1.012,8.605H1.012v-8.1h8.15Zm0,0" transform="translate(102.534 479.854)"/>
    <path id="Path_9" data-name="Path 9" d="M321.424,311.756a.506.506,0,0,0-.506-.506h-9.162a.506.506,0,0,0-.506.506v9.162a.506.506,0,0,0,.506.506h9.162a.506.506,0,0,0,.506-.506Zm-1.012,8.605h-8.15v-8.1h8.15Zm0,0" transform="translate(-196.112 479.854)"/>
  </g>
</svg>
