<svg xmlns="http://www.w3.org/2000/svg" width="33.835" height="30.161" viewBox="0 0 33.835 30.161">
  <g id="home_1_" data-name="home (1)" transform="translate(0 -27.797)">
    <g id="Group_4" data-name="Group 4" transform="translate(-0.001 27.798)">
      <g id="Group_3" data-name="Group 3" transform="translate(0 0)">
        <path id="Path_644" data-name="Path 644" d="M33.475,39.71,17.436,27.967a.879.879,0,0,0-1.039,0L.359,39.71A.879.879,0,1,0,1.4,41.129L16.917,29.766,32.436,41.129a.879.879,0,0,0,1.039-1.419Z" transform="translate(0.001 -27.797)"/>
      </g>
    </g>
    <g id="Group_6" data-name="Group 6" transform="translate(3.73 41.328)">
      <g id="Group_5" data-name="Group 5" transform="translate(0 0)">
        <path id="Path_645" data-name="Path 645" d="M81.947,232.543a.879.879,0,0,0-.879.879v13.993H74.035v-7.638a4.4,4.4,0,0,0-8.792,0v7.638H58.21V233.422a.879.879,0,0,0-1.758,0v14.872a.879.879,0,0,0,.879.879h8.791a.879.879,0,0,0,.876-.811.665.665,0,0,0,0-.068v-8.518a2.638,2.638,0,0,1,5.275,0v8.518a.644.644,0,0,0,0,.068.879.879,0,0,0,.876.811h8.791a.879.879,0,0,0,.879-.879V233.422A.879.879,0,0,0,81.947,232.543Z" transform="translate(-56.452 -232.543)"/>
      </g>
    </g>
  </g>
</svg>
