<svg id="list" xmlns="http://www.w3.org/2000/svg" width="28.877" height="21.736" viewBox="0 0 28.877 21.736">
  <path id="Path_950" data-name="Path 950" d="M15.36,48.775H34.67a1.441,1.441,0,0,0,0-2.882H15.361a1.441,1.441,0,0,0,0,2.882Z" transform="translate(-13.92 -27.421)" fill="#312da4"/>
  <path id="Path_951" data-name="Path 951" d="M15.36,29.944H34.67a1.441,1.441,0,0,0,0-2.882H15.361a1.441,1.441,0,0,0,0,2.882Z" transform="translate(-13.92 -17.635)" fill="#312da4"/>
  <path id="Path_952" data-name="Path 952" d="M15.36,11.113H34.67a1.441,1.441,0,0,0,0-2.882H15.361a1.441,1.441,0,0,0,0,2.882Z" transform="translate(-13.92 -7.848)" fill="#312da4"/>
  <ellipse id="Ellipse_26" data-name="Ellipse 26" cx="1.935" cy="1.935" rx="1.935" ry="1.935" transform="translate(25.007)" fill="#312da4"/>
  <ellipse id="Ellipse_27" data-name="Ellipse 27" cx="1.935" cy="1.935" rx="1.935" ry="1.935" transform="translate(25.007 8.933)" fill="#312da4"/>
  <ellipse id="Ellipse_28" data-name="Ellipse 28" cx="1.935" cy="1.935" rx="1.935" ry="1.935" transform="translate(25.007 17.866)" fill="#312da4"/>
</svg>
